<svg id="btn_Social_Instagram" xmlns="http://www.w3.org/2000/svg" width="23.892" height="25.015" viewBox="0 0 23.892 25.015">
  <defs>
    <style>
      .cls-1 {
        fill: #007dc4;
      }
    </style>
  </defs>
  <path id="Path_133" data-name="Path 133" class="cls-1" d="M511.679,248.852a1.995,1.995,0,1,0,1.994,1.995A1.995,1.995,0,0,0,511.679,248.852Z" transform="translate(-499.733 -238.339)"/>
  <path id="Path_141" data-name="Path 141" class="cls-1" d="M514.417,243.041a4.74,4.74,0,0,1,1.805-3.724,12.5,12.5,0,0,0-2.615-4.619,4.751,4.751,0,0,1-6.539-3.863,12.478,12.478,0,0,0-5.58,0,4.75,4.75,0,0,1-6.54,3.864,12.485,12.485,0,0,0-2.618,4.617,4.744,4.744,0,0,1,.011,7.446,12.5,12.5,0,0,0,2.607,4.593,4.752,4.752,0,0,1,6.539,3.864,12.476,12.476,0,0,0,5.58,0,4.752,4.752,0,0,1,6.54-3.864,12.494,12.494,0,0,0,2.61-4.591A4.741,4.741,0,0,1,514.417,243.041Zm-4.193,2.451a4.4,4.4,0,0,1-.278,1.452,3.06,3.06,0,0,1-1.75,1.749,4.377,4.377,0,0,1-1.452.278c-.638.029-.842.036-2.467.036s-1.829-.007-2.467-.036a4.381,4.381,0,0,1-1.452-.278,3.056,3.056,0,0,1-1.749-1.749,4.384,4.384,0,0,1-.278-1.452c-.029-.638-.036-.842-.036-2.467s.007-1.829.036-2.467a4.377,4.377,0,0,1,.278-1.452,3.055,3.055,0,0,1,1.749-1.75,4.4,4.4,0,0,1,1.452-.278c.638-.029.842-.036,2.467-.036s1.829.007,2.467.036a4.392,4.392,0,0,1,1.452.278,3.058,3.058,0,0,1,1.75,1.75,4.392,4.392,0,0,1,.278,1.452c.029.639.036.842.036,2.467S510.253,244.854,510.223,245.493Z" transform="translate(-492.33 -230.518)"/>
  <path id="Path_142" data-name="Path 142" class="cls-1" d="M514.179,245.153a1.983,1.983,0,0,0-1.136-1.136,3.3,3.3,0,0,0-1.111-.206c-.631-.029-.82-.035-2.418-.035s-1.787.006-2.417.035a3.3,3.3,0,0,0-1.111.206,1.983,1.983,0,0,0-1.136,1.136,3.3,3.3,0,0,0-.206,1.111c-.029.631-.035.82-.035,2.418s.006,1.787.035,2.418a3.3,3.3,0,0,0,.206,1.111,1.984,1.984,0,0,0,1.136,1.136,3.3,3.3,0,0,0,1.111.206c.631.029.82.035,2.417.035s1.787-.006,2.418-.035a3.3,3.3,0,0,0,1.111-.206,1.984,1.984,0,0,0,1.136-1.136,3.331,3.331,0,0,0,.206-1.111c.029-.631.035-.82.035-2.418s-.006-1.787-.035-2.418A3.331,3.331,0,0,0,514.179,245.153Zm-4.665,6.6a3.073,3.073,0,1,1,3.073-3.072A3.072,3.072,0,0,1,509.514,251.754Zm3.194-5.548a.718.718,0,1,1,.718-.718A.718.718,0,0,1,512.708,246.206Z" transform="translate(-497.568 -236.174)"/>
</svg>
