<svg xmlns="http://www.w3.org/2000/svg" width="23.892" height="25.015" viewBox="0 0 23.892 25.015">
  <defs>
    <style>
      .cls-1 {
        fill: #007dc4;
      }
    </style>
  </defs>
  <g id="btn_Social_Twitter" transform="translate(0)">
    <path id="btn_Social_Twitter-2" data-name="btn_Social_Twitter" class="cls-1" d="M715.39,243.041a4.741,4.741,0,0,1,1.806-3.724,12.5,12.5,0,0,0-2.615-4.619,4.751,4.751,0,0,1-6.539-3.863,12.478,12.478,0,0,0-5.58,0,4.75,4.75,0,0,1-6.54,3.864,12.485,12.485,0,0,0-2.618,4.617,4.745,4.745,0,0,1,.011,7.446,12.485,12.485,0,0,0,2.607,4.593,4.752,4.752,0,0,1,6.538,3.864,12.479,12.479,0,0,0,5.58,0,4.752,4.752,0,0,1,6.54-3.864,12.485,12.485,0,0,0,2.61-4.591,4.741,4.741,0,0,1-1.8-3.721m-12.422,2.65a2.387,2.387,0,0,1-2.228-1.657,2.38,2.38,0,0,0,1.077-.041,2.388,2.388,0,0,1-1.913-2.369,2.375,2.375,0,0,0,1.081.3,2.388,2.388,0,0,1-.739-3.185,6.773,6.773,0,0,0,4.918,2.493,2.387,2.387,0,0,1,4.065-2.176,4.784,4.784,0,0,0,1.515-.579,2.39,2.39,0,0,1-1.049,1.319,4.775,4.775,0,0,0,1.37-.375,4.826,4.826,0,0,1-1.19,1.235,6.784,6.784,0,0,1-10.438,6.025A4.8,4.8,0,0,0,702.968,245.691Z" transform="translate(-693.304 -230.518)"/>
  </g>
</svg>
