<svg id="btn_Social_Googleplus" xmlns="http://www.w3.org/2000/svg" width="23.891" height="25.015" viewBox="0 0 23.891 25.015">
  <defs>
    <style>
      .cls-1 {
        fill: #007dc4;
      }
    </style>
  </defs>
  <path id="btn_Social_Googleplus-2" data-name="btn_Social_Googleplus" class="cls-1" d="M665.147,243.041a4.742,4.742,0,0,1,1.805-3.724,12.5,12.5,0,0,0-2.615-4.619,4.751,4.751,0,0,1-6.539-3.863,12.476,12.476,0,0,0-5.58,0,4.751,4.751,0,0,1-6.54,3.864,12.492,12.492,0,0,0-2.617,4.617,4.745,4.745,0,0,1,.011,7.446,12.491,12.491,0,0,0,2.607,4.593,4.752,4.752,0,0,1,6.539,3.864,12.479,12.479,0,0,0,5.58,0,4.752,4.752,0,0,1,6.54-3.864,12.493,12.493,0,0,0,2.61-4.591,4.741,4.741,0,0,1-1.8-3.721m-8.138.189a4.294,4.294,0,0,1-4.331,4.536A4.741,4.741,0,1,1,656,239.649l-.976.841a3.458,3.458,0,1,0-2.351,5.994,2.917,2.917,0,0,0,2.893-2.48H652.6l-.005-1.263H657Zm6.329.724h-1.82v1.82h-1.161v-1.82h-1.82v-1.161h1.82v-1.82h1.161v1.82h1.82Z" transform="translate(-643.061 -230.518)"/>
</svg>
