<svg id="btn_Social_Facebook" xmlns="http://www.w3.org/2000/svg" width="23.892" height="25.015" viewBox="0 0 23.892 25.015">
  <defs>
    <style>
      .cls-1 {
        fill: #007dc4;
      }
    </style>
  </defs>
  <path id="btn_Social_Facebook-2" data-name="btn_Social_Facebook" class="cls-1" d="M464.173,243.041a4.741,4.741,0,0,1,1.806-3.724,12.5,12.5,0,0,0-2.615-4.619,4.751,4.751,0,0,1-6.539-3.863,12.478,12.478,0,0,0-5.58,0,4.75,4.75,0,0,1-6.54,3.864,12.486,12.486,0,0,0-2.618,4.617,4.744,4.744,0,0,1,.011,7.446,12.483,12.483,0,0,0,2.607,4.593,4.751,4.751,0,0,1,6.538,3.864,12.479,12.479,0,0,0,5.58,0,4.752,4.752,0,0,1,6.54-3.864,12.485,12.485,0,0,0,2.61-4.591,4.741,4.741,0,0,1-1.8-3.721M452.37,243h-1.381v-2.255h1.381v-1.776c0-1.666.892-2.537,2.868-2.537h1.839v2.311H455.64c-.507,0-.613.208-.613.732v1.269h2.051l-.2,2.227h-1.853v6.652H452.37Z" transform="translate(-442.087 -230.518)"/>
</svg>
