<svg id="pgt_Hipercard" xmlns="http://www.w3.org/2000/svg" width="34.885" height="23.257" viewBox="0 0 34.885 23.257">
  <defs>
    <style>
      .cls-1, .cls-4 {
        fill: #f2f3f4;
      }

      .cls-1, .cls-3 {
        fill-rule: evenodd;
      }

      .cls-2 {
        fill: #c6c6c6;
      }

      .cls-3 {
        fill: #a61121;
      }
    </style>
  </defs>
  <g id="hipercard-v2">
    <path id="Path" class="cls-1" d="M242.856,274.96a2.916,2.916,0,0,1-2.907,2.907H210.878a2.916,2.916,0,0,1-2.907-2.907V257.518a2.916,2.916,0,0,1,2.907-2.907h29.071a2.916,2.916,0,0,1,2.907,2.907Z" transform="translate(-207.971 -254.611)"/>
    <path id="Shape" class="cls-2" d="M239.949,254.611H210.878a2.916,2.916,0,0,0-2.907,2.907V274.96a2.916,2.916,0,0,0,2.907,2.907h29.071a2.916,2.916,0,0,0,2.907-2.907V257.518A2.916,2.916,0,0,0,239.949,254.611Zm0,.581a2.328,2.328,0,0,1,2.326,2.326V274.96a2.328,2.328,0,0,1-2.326,2.326H210.878a2.328,2.328,0,0,1-2.326-2.326V257.518a2.328,2.328,0,0,1,2.326-2.326Z" transform="translate(-207.971 -254.611)"/>
    <path id="Path_194" data-name="Path 194" class="cls-3" d="M225.586,276.314l-11.7,0v-.028c0-.016.019-.116.041-.223s.058-.278.078-.379.056-.273.078-.382.059-.291.083-.4.059-.291.08-.4.056-.277.078-.382.059-.287.083-.4l.08-.4c.02-.1.053-.258.072-.347s.044-.21.055-.269.045-.23.077-.383.067-.324.078-.382.047-.23.078-.383.067-.324.078-.382.046-.23.078-.382.067-.321.077-.375.038-.195.062-.312.07-.337.1-.488.085-.416.12-.588.076-.375.091-.453.045-.218.064-.312l.077-.375.085-.41c.023-.113.059-.288.079-.39s.055-.27.077-.375.06-.29.085-.41.066-.305.091-.41.062-.233.081-.283a2.562,2.562,0,0,1,.115-.244l.081-.152.073-.1c.04-.053.112-.136.16-.185s.128-.123.178-.165.124-.1.163-.124.115-.074.17-.1.131-.07.17-.089.119-.052.177-.074.17-.06.248-.084.224-.059.325-.079.26-.047.354-.059l.171-.023,11.7,0,11.7,0v.028c0,.016-.019.116-.042.223s-.061.291-.085.408-.059.285-.077.375l-.079.383c-.024.121-.063.305-.084.41s-.057.277-.078.383-.056.277-.078.382-.056.271-.076.368l-.079.39c-.024.117-.062.3-.085.41s-.058.278-.078.375l-.079.39c-.024.117-.062.3-.085.41s-.057.274-.076.368-.054.269-.079.39-.06.3-.079.39l-.076.368c-.023.109-.062.3-.086.417s-.06.292-.079.382-.053.258-.077.375-.062.3-.084.41-.058.281-.079.382-.056.276-.08.39l-.084.41-.077.375-.078.383c-.024.117-.062.3-.086.409l-.042.2-.051.136c-.028.075-.07.174-.093.221s-.071.129-.106.183-.083.123-.108.154-.1.109-.164.176l-.119.12-.115.081c-.063.045-.131.091-.151.1l-.169.087c-.073.037-.176.083-.229.1s-.158.055-.234.077-.156.044-.18.048l-.18.037c-.076.016-.229.04-.34.053l-.2.024Z" transform="translate(-210.448 -258.595)"/>
    <g id="Group" transform="translate(5.832 9.085)">
      <path id="Path_195" data-name="Path 195" class="cls-1" d="M222.093,270.575l.045-.192h-.854l-.019.13c0,.037-.022.139-.037.228l-.006.036c-.016.091-.04.226-.056.318s-.053.306-.077.447-.053.327-.066.413l-.015.1-.962.02-.43-.01-.352-.01c0-.012,0-.026.007-.04.012-.065.033-.179.048-.252s.044-.222.063-.327.042-.238.051-.294.023-.141.034-.2.035-.177.051-.267.029-.156.033-.17l.047-.122h-.861l-.033.183c-.012.069-.028.167-.036.219s-.034.212-.058.36l-.156.977c-.024.148-.062.376-.086.508s-.059.32-.077.417l-.078.41c-.024.129-.06.309-.079.4s-.041.2-.048.243-.028.15-.048.248c-.014.07-.038.191-.038.216v.1h.823l.171-1.037c.024-.144.06-.357.08-.474s.052-.3.07-.4c.012-.068.023-.12.027-.147h1.737l0,.016c-.009.045-.035.184-.058.309l-.086.467c-.024.132-.059.32-.078.417s-.057.3-.084.454c-.015.085-.051.284-.051.306v.09h.824l.026-.149c.009-.049.022-.138.031-.2s.027-.181.043-.274l.07-.41c.023-.133.06-.359.085-.5s.059-.354.078-.467.054-.3.077-.424l.243-1.324C222.05,270.782,222.081,270.631,222.093,270.575Z" transform="translate(-218.002 -270.298)"/>
      <path id="Path_196" data-name="Path 196" class="cls-1" d="M225.655,273.638l.077-.4c.02-.105.058-.3.086-.444s.05-.24.056-.255l.069-.112-.81.01-.034.246c-.014.1-.045.3-.069.445l-.079.489c-.02.124-.055.324-.077.444l-.077.41c-.02.105-.055.29-.078.41s-.055.279-.07.353-.03.145-.035.162l-.033.123h.754l.026-.069a.349.349,0,0,0,.013-.1c0-.019.015-.137.042-.3.024-.145.062-.382.086-.526s.059-.354.078-.467S225.632,273.755,225.655,273.638Z" transform="translate(-220.755 -271.152)"/>
      <path id="Path_197" data-name="Path 197" class="cls-1" d="M225.935,271.165l.215.008.148-.05.149-.14.08-.19.007-.286-.067-.112-.14-.1h-.234l-.174.071-.108.107-.08.177-.019.287.082.16Z" transform="translate(-221.229 -270.263)"/>
      <path id="Path_198" data-name="Path 198" class="cls-4" d="M228.768,273.327l-.012.513-.036.159c-.019.083-.056.212-.083.289l-.044.128-.059.112a1.869,1.869,0,0,1-.106.177.711.711,0,0,1-.091.1c-.026.023-.07.058-.1.078l-.043.032-.22.075-.21.015-.145-.026-.137-.062-.091-.087-.026-.058a1.034,1.034,0,0,1-.045-.134l-.015-.066.012-.224.037-.191c.02-.105.056-.3.08-.44s.06-.336.081-.442l.032-.171.061-.051a1.211,1.211,0,0,1,.147-.1l.061-.037.181-.058.244-.015.183.037.135.062.106.106.028.056a.847.847,0,0,1,.051.141Zm.7-.409-.1-.191-.2-.213-.255-.133-.252-.06-.255-.017-.278.033-.231.06-.1.044c-.052.024-.132.067-.178.1l-.038.026a.885.885,0,0,0,.016-.111l0-.075h-.656l-.055.348c-.025.158-.065.4-.088.541l-.156.927c-.023.136-.062.352-.085.481l-.155.842c-.024.133-.063.343-.087.467s-.061.322-.084.438-.045.224-.049.241l-.029.122h.751l.028-.07a.308.308,0,0,0,.013-.089c0-.015.008-.09.022-.176l.14-.887c.015-.092.031-.205.043-.283l.147.148.218.094.262.035.306-.02.328-.085.085-.039a1.742,1.742,0,0,0,.194-.109l.11-.074.092-.092a2.205,2.205,0,0,0,.166-.188.519.519,0,0,0,.078-.119c.006-.01.018-.029.03-.048a1.557,1.557,0,0,0,.108-.213c.033-.078.086-.22.118-.318l.057-.179.028-.147c.016-.084.037-.22.046-.3l.016-.163-.02-.266Z" transform="translate(-221.419 -271.102)"/>
      <path id="Path_199" data-name="Path 199" class="cls-4" d="M234.192,273.194l-.022.2h-.648c-.27,0-.494,0-.613,0l.006-.016c.02-.054.054-.135.076-.18l.037-.074.17-.169.08-.038a1.038,1.038,0,0,1,.135-.054,1.382,1.382,0,0,1,.185-.021l.135-.009.2.025.135.062.034.036a.462.462,0,0,1,.052.069l.014.027Zm.7.1v-.276l-.045-.194-.045-.084a1,1,0,0,0-.087-.125.7.7,0,0,0-.107-.1c-.03-.02-.088-.056-.129-.078l-.088-.044-.257-.061-.317-.03-.292.02-.353.069-.107.042a2.259,2.259,0,0,0-.207.1,1.593,1.593,0,0,0-.165.11c-.037.03-.1.087-.141.128a1.364,1.364,0,0,0-.137.167,2.107,2.107,0,0,0-.112.192c-.028.056-.065.134-.083.175s-.047.121-.067.181-.052.172-.072.255-.045.21-.058.291l-.023.155,0,.438.022.092a1.814,1.814,0,0,0,.053.18,1.4,1.4,0,0,0,.07.152.863.863,0,0,0,.105.14,1.363,1.363,0,0,0,.138.123,1.08,1.08,0,0,0,.167.1l.1.042.116.028c.066.016.166.035.222.042s.171.013.262.015l.159,0,.159-.015c.087-.008.228-.024.315-.036s.242-.041.334-.06l.222-.049.016-.115c0-.034.024-.136.042-.227l.035-.168-.008-.055-.065-.063-.1.048c-.023.012-.108.043-.192.07l-.14.047-.3.06h-.484l-.073-.023a1.183,1.183,0,0,1-.143-.057l-.059-.029-.1-.086-.075-.127-.052-.181v-.333l.04-.257.363-.017,1.633.011.037-.158c.013-.058.034-.176.046-.262Z" transform="translate(-223.862 -271.101)"/>
      <path id="Path_200" data-name="Path 200" class="cls-1" d="M238.865,272.932a.439.439,0,0,0,.109.027c.008,0,.081,0,.081-.105,0-.015.013-.092.034-.194a1.743,1.743,0,0,0,.037-.2c0-.06-.053-.08-.155-.11a1.358,1.358,0,0,0-.185-.042l-.082-.01-.1.018a1.378,1.378,0,0,0-.18.047,1,1,0,0,0-.166.084,1.167,1.167,0,0,0-.157.126c-.02.02-.048.05-.075.083.014-.078.027-.149.031-.165l.036-.118h-.71v.106c0,.015-.013.107-.035.24s-.052.32-.072.445-.055.341-.078.481-.058.34-.078.444l-.078.41c-.023.121-.062.318-.085.438s-.052.263-.063.316a.637.637,0,0,0-.022.137v.073h.745l.014-.2c0-.069.022-.21.037-.309s.048-.308.073-.456.068-.392.1-.545.065-.3.073-.327a.421.421,0,0,0,.024-.092.977.977,0,0,1,.045-.11,1.734,1.734,0,0,1,.109-.2l.053-.083.165-.152.188-.09.3,0Z" transform="translate(-225.9 -271.1)"/>
      <path id="Path_201" data-name="Path 201" class="cls-1" d="M242.561,272.811c.01-.064.027-.169.039-.233.025-.14.022-.162-.005-.189s-.024-.023-.166-.04c-.065-.008-.241-.021-.392-.03l-.28-.015-.392.031-.3.063-.092.037a1.461,1.461,0,0,0-.174.085c-.041.025-.092.059-.117.075s-.1.088-.157.142l-.117.117-.06.088a2.459,2.459,0,0,0-.133.235l-.071.145-.052.149c-.029.084-.07.22-.09.3l-.038.159-.027.276v.363l.031.223.091.224.108.166.156.154.2.105.109.03c.065.018.152.037.2.045s.16.013.247.014l.16,0,.181-.021c.1-.012.231-.031.293-.043s.165-.036.225-.054c.125-.034.141-.048.147-.054s.032-.026.063-.185c.015-.074.033-.173.041-.22.017-.1.013-.125-.012-.155l-.024-.022h-.03a.1.1,0,0,0-.06.022c-.011.006-.065.03-.14.058l-.125.047-.372.074-.319-.011-.163-.057-.124-.109-.084-.154-.042-.209v-.294l.053-.358.03-.1c.016-.055.035-.12.041-.144s.031-.084.054-.138.069-.143.1-.194l.044-.08.121-.129.126-.081.091-.029a1.676,1.676,0,0,1,.188-.042l.091-.015.3.014.357.07.075.028c.088.033.088.033.1.033C242.534,272.989,242.54,272.948,242.561,272.811Z" transform="translate(-227.185 -271.102)"/>
      <path id="Path_202" data-name="Path 202" class="cls-4" d="M246.217,273.9l-.008.044c-.01.06-.034.167-.053.24s-.054.18-.076.234c-.028.072-.039.1-.044.122s-.024.045-.044.078l-.047.079-.078.078a.758.758,0,0,1-.074.068.413.413,0,0,0-.075.043l-.044.03-.21.066-.206.011-.065-.016a.683.683,0,0,1-.123-.047l-.051-.026-.026-.031a.581.581,0,0,1-.056-.086l-.023-.044-.01-.244.021-.072a1.226,1.226,0,0,1,.065-.163l.04-.083.154-.153.157-.077.218-.052Zm.635-1.4-.2-.1-.294-.067-.376-.028-.236.015c-.13.008-.314.024-.41.036l-.162.02-.291,0-.029.138c-.009.044-.034.149-.056.233-.047.179-.049.2-.019.227l.024.024h.033a.7.7,0,0,0,.154-.034c.073-.019.228-.052.339-.07l.2-.035.366-.017.236.041.138.068.069.1v.179l-.037.18-.959,0-.185.049a2.008,2.008,0,0,0-.239.079.2.2,0,0,0-.04.021c-.018,0-.034,0-.159.078l-.121.077-.085.085a1.362,1.362,0,0,0-.142.166,1.4,1.4,0,0,0-.1.193l-.052.126-.044.26v.273l.041.216.047.091a.967.967,0,0,0,.095.138l.048.056.187.118.115.035c.056.015.14.035.188.042l.09.014.4-.013.254-.066.078-.037a1.524,1.524,0,0,0,.165-.094,1.173,1.173,0,0,0,.158-.13l.036-.038c-.006.058-.01.113-.01.148v.161h.663l.018-.466.037-.262c.02-.143.053-.355.073-.472s.055-.314.077-.438.058-.319.079-.432l.039-.217,0-.355-.087-.2Z" transform="translate(-228.96 -271.102)"/>
      <path id="Path_203" data-name="Path 203" class="cls-1" d="M251.265,272.963l.055,0,.062-.039v-.084a1.887,1.887,0,0,1,.033-.192l.045-.22-.095-.038-.112-.037-.071-.023-.277,0-.245.084-.156.094-.156.16c.012-.064.027-.148.027-.171l0-.106h-.6l-.073,0v.073c0,.013-.013.1-.028.2s-.048.31-.072.454-.061.376-.085.516-.058.34-.078.445l-.077.41-.2.992h.779v-.251l.036-.234c.02-.128.052-.333.072-.453s.045-.274.055-.34.037-.207.06-.315.052-.225.062-.253a.5.5,0,0,0,.026-.092,1.145,1.145,0,0,1,.053-.123l.051-.111.148-.2.076-.058a1.125,1.125,0,0,1,.154-.1l.066-.033.326,0Z" transform="translate(-231.049 -271.11)"/>
      <path id="Path_204" data-name="Path 204" class="cls-4" d="M253.155,272.746a.756.756,0,0,1,.038-.1c.023-.052.061-.131.085-.177a1.46,1.46,0,0,1,.1-.152,1.259,1.259,0,0,1,.117-.133.894.894,0,0,1,.117-.094l.049-.032.211-.073h.445l.125.034c.058.016.119.034.151.045-.007.038-.021.114-.034.189-.016.094-.048.272-.072.4s-.058.312-.078.417-.048.235-.063.292l-.048.179a1.132,1.132,0,0,1-.056.145,1.073,1.073,0,0,1-.077.135.668.668,0,0,1-.082.1,1.036,1.036,0,0,1-.116.088l-.07.046-.206.066-.188.012-.073-.013a.676.676,0,0,1-.124-.038l-.06-.026-.1-.079-.074-.144-.036-.158,0-.359.043-.314.035-.113C253.171,272.717,253.155,272.746,253.155,272.746Zm1.721-2.51-.016.154c0,.048-.028.207-.051.353s-.062.383-.085.523l-.044.265-.106-.029-.147-.036-.381-.028-.323.031-.3.077-.28.138-.208.156-.085.092a2.2,2.2,0,0,0-.158.193l-.072.1-.077.16c-.045.093-.1.209-.117.265s-.059.178-.084.276l-.045.181-.042.452.035.369.019.063c.011.037.034.1.051.145l.03.075.13.177.138.111.085.041a1.085,1.085,0,0,0,.187.072,1.624,1.624,0,0,0,.187.038c.049.006.151.012.23.013l.141,0,.134-.022c.066-.011.162-.03.206-.042a1.123,1.123,0,0,0,.17-.068l.1-.054.156-.14h0c0,.028-.007.058-.009.081l-.017.176h.708v-.255l.042-.361c.023-.2.058-.462.076-.586s.048-.3.064-.394.047-.263.066-.376.055-.31.078-.438l.16-.871c.02-.109.056-.3.08-.424s.059-.3.078-.388a1.032,1.032,0,0,0,.035-.2v-.073Z" transform="translate(-232.342 -270.236)"/>
    </g>
  </g>
</svg>
