<svg id="pgt_Boleto" xmlns="http://www.w3.org/2000/svg" width="34.88" height="23.253" viewBox="0 0 34.88 23.253">
  <defs>
    <style>
      .cls-1 {
        fill: #f2f3f4;
      }

      .cls-1, .cls-3, .cls-4 {
        fill-rule: evenodd;
      }

      .cls-2 {
        fill: #c6c6c6;
      }

      .cls-3 {
        fill: #040505;
      }

      .cls-4 {
        fill: #533b8f;
      }
    </style>
  </defs>
  <g id="Artboard">
    <g id="boleto-barcode-v2" transform="translate(0 0)">
      <path id="Path" class="cls-1" d="M322.957,321.475a2.915,2.915,0,0,1-2.907,2.907H290.984a2.915,2.915,0,0,1-2.907-2.907v-17.44a2.915,2.915,0,0,1,2.907-2.907H320.05a2.915,2.915,0,0,1,2.907,2.907Z" transform="translate(-288.077 -301.128)"/>
      <path id="Shape" class="cls-2" d="M320.05,301.128H290.984a2.915,2.915,0,0,0-2.907,2.907v17.44a2.915,2.915,0,0,0,2.907,2.907H320.05a2.915,2.915,0,0,0,2.907-2.907v-17.44A2.915,2.915,0,0,0,320.05,301.128Zm0,.581a2.328,2.328,0,0,1,2.325,2.325v17.44a2.328,2.328,0,0,1-2.325,2.325H290.984a2.328,2.328,0,0,1-2.325-2.325v-17.44a2.328,2.328,0,0,1,2.325-2.325Z" transform="translate(-288.077 -301.128)"/>
      <path id="Combined-Shape" class="cls-3" d="M301.912,311.073h1.149v11.69h-1.149Zm7.067,0h1.149v11.69h-1.149Zm5.877,0H316v11.69h-1.149Zm2.338,0h1.149v11.69h-1.149Zm2.365,0h1.149v11.69h-1.149Zm-8.242,0h2.336v11.69h-2.336Zm-7.053,0h3.512v11.69h-3.512Z" transform="translate(-293.869 -305.292)"/>
      <path id="Path_211" data-name="Path 211" class="cls-4" d="M296.576,322.179h25v1.744h-25Z" transform="translate(-291.635 -309.941)"/>
    </g>
  </g>
</svg>
