<svg id="ic_produtos_eletricos" xmlns="http://www.w3.org/2000/svg" width="24" height="24" viewBox="0 0 24 24">
  <defs>
    <style>
      .cls-1 {
        fill: none;
      }

      .cls-2 {
        fill: #757575;
      }
    </style>
  </defs>
  <path id="Path_14" data-name="Path 14" class="cls-1" d="M66.026,44h24V68h-24Z" transform="translate(-66.026 -43.996)"/>
  <path id="Path_23" data-name="Path 23" class="cls-2" d="M71.256,65.323a3.365,3.365,0,0,1-2.611-1.218,3.192,3.192,0,0,1-.677-2.643l2.1-10.851a4.927,4.927,0,0,1,4.875-3.942h6.165a4.936,4.936,0,0,1,4.879,3.943l2.1,10.85a3.191,3.191,0,0,1-.676,2.644A3.361,3.361,0,0,1,84.8,65.323H80.336v-1.3H82.5a1.736,1.736,0,1,0,0-3.471H80.77v-.867a.859.859,0,0,0-.31-.659,3.086,3.086,0,0,1,1.157-1.439,2.782,2.782,0,0,0,1.756-2.95V53.61h.868a.868.868,0,0,0,.868-.868v-1.3a.868.868,0,0,0-.868-.868h-2.6a.868.868,0,0,0-.868.868v1.3a.868.868,0,0,0,.868.868H82.5v1.025a1.95,1.95,0,0,1-1.28,2.177,4.043,4.043,0,0,0-1.62,2H79c-.119-1.053-.547-3.731-1.881-4.691A3,3,0,0,1,76,51.875h.862a.868.868,0,0,0,.867-.868v-1.3a.867.867,0,0,0-.867-.868h-2.6a.868.868,0,0,0-.868.868v1.3a.868.868,0,0,0,.868.868h.867a3.863,3.863,0,0,0,1.48,2.955c.923.664,1.365,2.8,1.514,3.986H77.3a.843.843,0,0,0-.181.019l-.481-.773a22.043,22.043,0,0,1-1.714-3.369,1.683,1.683,0,0,0-1.572-1.083,1.707,1.707,0,0,0-1.692,1.718v1.319h-.868a.867.867,0,0,0-.867.867v1.3a.868.868,0,0,0,.867.868h2.6a.868.868,0,0,0,.868-.868v-1.3a.868.868,0,0,0-.868-.867h-.868V55.328a.839.839,0,0,1,.825-.85.824.824,0,0,1,.767.536A22.916,22.916,0,0,0,75.9,58.52l.571.918a.855.855,0,0,0-.04.246v.867H74.7a1.736,1.736,0,1,0,0,3.471h2.169v.434a3.9,3.9,0,0,1-.109.867Z" transform="translate(-66.026 -43.996)"/>
  <rect id="Rectangle_3" data-name="Rectangle 3" class="cls-2" width="2.603" height="1.301" transform="translate(15.612 7.445)"/>
  <rect id="Rectangle_4" data-name="Rectangle 4" class="cls-2" width="2.603" height="1.301" transform="translate(8.237 5.71)"/>
  <rect id="Rectangle_5" data-name="Rectangle 5" class="cls-2" width="2.603" height="1.302" transform="translate(4.766 13.518)"/>
</svg>
