<svg xmlns="http://www.w3.org/2000/svg" width="24" height="24" viewBox="0 0 24 24">
  <defs>
    <style>
      .cls-1 {
        fill: none;
      }

      .cls-2 {
        fill: #757575;
      }
    </style>
  </defs>
  <g id="ic_produtos_epi" transform="translate(0 0)">
    <path id="Path_14" data-name="Path 14" class="cls-1" d="M193.1,43.106h24v24h-24Z" transform="translate(-193.097 -43.106)"/>
    <g id="Group_10" data-name="Group 10" transform="translate(-193.097 -43.106)">
      <path id="Path_26" data-name="Path 26" class="cls-2" d="M213.492,54.173h-.012a8.355,8.355,0,0,0-5.6-7.6.933.933,0,0,0-.918-.792h-3.731a.933.933,0,0,0-.918.792,8.355,8.355,0,0,0-5.6,7.6H196.7a.933.933,0,0,0-.933.933v.621a.933.933,0,0,0,.933.933h16.789a.933.933,0,0,0,.933-.933v-.621A.933.933,0,0,0,213.492,54.173ZM202.3,47.237v5.381a.311.311,0,0,0,.622,0V46.711a.311.311,0,0,1,.311-.311h1.555v6.84a.311.311,0,1,0,.621,0V46.4h1.555a.311.311,0,0,1,.311.311v5.907a.311.311,0,1,0,.622,0V47.237a7.735,7.735,0,0,1,4.962,6.936H197.337A7.735,7.735,0,0,1,202.3,47.237Z"/>
      <path id="Path_27" data-name="Path 27" class="cls-2" d="M214.114,59.458h-1.275a1.556,1.556,0,0,0-1.523-1.243H198.879a1.556,1.556,0,0,0-1.554,1.554h-1.244a.311.311,0,0,0-.311.311v2.487a.311.311,0,0,0,.311.311h1.337a2.179,2.179,0,0,0,2.083,1.555h1.866a4.065,4.065,0,0,0,3.472-1.972.306.306,0,0,1,.42-.1.31.31,0,0,1,.1.1,4.065,4.065,0,0,0,3.472,1.972h1.866a2.176,2.176,0,0,0,2.151-1.866h1.269a.31.31,0,0,0,.311-.31V59.769A.311.311,0,0,0,214.114,59.458Z"/>
    </g>
  </g>
</svg>
