<svg id="ic_teky_sniper" xmlns="http://www.w3.org/2000/svg" width="24" height="24" viewBox="0 0 24 24">
  <defs>
    <style>
      .cls-1 {
        fill: none;
      }

      .cls-2 {
        fill: #939393;
      }
    </style>
  </defs>
  <rect id="rectangle" class="cls-1" width="24" height="24"/>
  <g id="Group_4" data-name="Group 4" transform="translate(-475.021 -271.851)">
    <path id="Path_15" data-name="Path 15" class="cls-2" d="M495.863,284.065a4.116,4.116,0,0,1,1.567-3.232,10.837,10.837,0,0,0-2.269-4.007,4.123,4.123,0,0,1-5.673-3.352,10.848,10.848,0,0,0-4.841,0,4.124,4.124,0,0,1-5.674,3.353,10.825,10.825,0,0,0-2.271,4.005,4.117,4.117,0,0,1,.01,6.46,10.839,10.839,0,0,0,2.262,3.985,4.123,4.123,0,0,1,5.673,3.352,10.847,10.847,0,0,0,4.841,0,4.123,4.123,0,0,1,5.673-3.353,10.821,10.821,0,0,0,2.264-3.983A4.114,4.114,0,0,1,495.863,284.065Zm-8.242,4.6v-2.379a2.223,2.223,0,0,1-1.107,0v2.379a4.648,4.648,0,0,1-4.061-4.062h2.378a2.251,2.251,0,0,1,0-1.106h-2.378a4.648,4.648,0,0,1,4.061-4.062v2.379a2.223,2.223,0,0,1,1.107,0v-2.379a4.649,4.649,0,0,1,4.061,4.062H489.3a2.22,2.22,0,0,1,0,1.106h2.379A4.649,4.649,0,0,1,487.621,288.666Z"/>
  </g>
</svg>
