<svg id="Teky_LogoNoIcon_Mono" xmlns="http://www.w3.org/2000/svg" width="79.638" height="44.72" viewBox="0 0 79.638 44.72">
  <defs>
    <style>
      .cls-1 {
        fill: #ffffff;
      }
    </style>
  </defs>
  <path id="Path_16" data-name="Path 16" class="cls-1" d="M141.732,58.592l5.212-10.423h6.765l-6.66,13.2,7.548,15.6h-6.739l-6.126-12.865Z" transform="translate(-93.337 -40.214)"/>
  <path id="Path_17" data-name="Path 17" class="cls-1" d="M182.016,48.189,178.34,61.973l-3.676-13.784h-2.144l-3,5.993,5.447,20.426-2.757,10.338h6.739l9.8-36.756Z" transform="translate(-109.116 -40.225)"/>
  <path id="Path_18" data-name="Path 18" class="cls-1" d="M43.82,66.52V60.394H39.566V43.241H43.82V37.728H39.566V29.764H32.854v7.964h-3.09v5.513h3.09V62.956c0,2.4,1.169,3.564,3.622,3.564ZM60.394,49.4H54.881V43.241h5.513ZM78.16,29.764H71.421V66.52H78.16ZM67.135,48.142v-6.85c0-2.4-1.227-3.564-3.68-3.564H51.823c-2.512,0-3.681,1.168-3.681,3.564V62.956c0,2.4,1.169,3.564,3.681,3.564H63.455c2.453,0,3.68-1.168,3.68-3.564v-4.4h-5.21l-.919,1.838H54.881V54.241l8.691.024c2.4,0,3.564-1.227,3.564-3.681ZM60.394,49.4H54.881V43.241h5.513Zm6.741-1.261v-6.85c0-2.4-1.227-3.564-3.68-3.564H51.823c-2.512,0-3.681,1.168-3.681,3.564V62.956c0,2.4,1.169,3.564,3.681,3.564H63.455c2.453,0,3.68-1.168,3.68-3.564v-4.4h-5.21l-.919,1.838H54.881V54.241l8.691.024c2.4,0,3.564-1.227,3.564-3.681Z" transform="translate(-29.764 -29.764)"/>
</svg>
