<svg id="Teky_LogoIcon_Color" xmlns="http://www.w3.org/2000/svg" width="100" height="44.724" viewBox="0 0 100 44.724">
  <defs>
    <style>
      .cls-1 {
        fill: #ffffff;
      }

      .cls-2 {
        fill: #ffffff;
      }
    </style>
  </defs>
  <g id="Group_3" data-name="Group 3" transform="translate(80.725 8.038)">
    <path id="Path_9" data-name="Path 9" class="cls-1" d="M234.33,58.461a3.826,3.826,0,0,1,1.457-3,10.078,10.078,0,0,0-2.11-3.727,3.832,3.832,0,0,1-5.275-3.117,10.087,10.087,0,0,0-4.5,0,3.833,3.833,0,0,1-5.276,3.118,10.067,10.067,0,0,0-2.112,3.725,3.828,3.828,0,0,1,.009,6.007,10.082,10.082,0,0,0,2.1,3.706,3.834,3.834,0,0,1,5.276,3.117,10.07,10.07,0,0,0,4.5,0,3.833,3.833,0,0,1,5.276-3.118,10.077,10.077,0,0,0,2.106-3.7A3.825,3.825,0,0,1,234.33,58.461Zm-7.665,4.279V60.528a2.075,2.075,0,0,1-1.029,0V62.74a4.323,4.323,0,0,1-3.777-3.777h2.212a2.075,2.075,0,0,1,0-1.029h-2.212a4.323,4.323,0,0,1,3.777-3.777v2.212a2.075,2.075,0,0,1,1.029,0V54.157a4.323,4.323,0,0,1,3.777,3.777h-2.212a2.074,2.074,0,0,1,0,1.029h2.212A4.323,4.323,0,0,1,226.665,62.74Z" transform="translate(-216.511 -48.358)"/>
  </g>
  <path id="Path_10" data-name="Path 10" class="cls-2" d="M141.732,58.593l5.212-10.424h6.765l-6.66,13.2,7.549,15.6h-6.739l-6.127-12.866Z" transform="translate(-93.332 -40.213)"/>
  <path id="Path_11" data-name="Path 11" class="cls-2" d="M182.017,48.189l-3.676,13.785-3.676-13.785h-2.144l-3,5.993,5.447,20.428-2.757,10.339h6.739l9.8-36.76Z" transform="translate(-109.11 -40.224)"/>
  <path id="Path_12" data-name="Path 12" class="cls-1" d="M43.821,66.524V60.4H39.567V43.243h4.255V37.729H39.567V29.764H32.854v7.965h-3.09v5.514h3.09V62.96c0,2.4,1.169,3.564,3.622,3.564ZM60.4,49.4H54.883V43.243H60.4ZM78.164,29.764H71.425v36.76h6.739ZM67.139,48.144V41.293c0-2.4-1.227-3.564-3.681-3.564H51.825c-2.512,0-3.681,1.168-3.681,3.564V62.96c0,2.4,1.169,3.564,3.681,3.564H63.458c2.454,0,3.681-1.168,3.681-3.564v-4.4h-5.21L61.01,60.4H54.883V54.244l8.692.024c2.4,0,3.564-1.227,3.564-3.681ZM60.4,49.4H54.883V43.243H60.4Zm6.742-1.261V41.293c0-2.4-1.227-3.564-3.681-3.564H51.825c-2.512,0-3.681,1.168-3.681,3.564V62.96c0,2.4,1.169,3.564,3.681,3.564H63.458c2.454,0,3.681-1.168,3.681-3.564v-4.4h-5.21L61.01,60.4H54.883V54.244l8.692.024c2.4,0,3.564-1.227,3.564-3.681Z" transform="translate(-29.764 -29.764)"/>
</svg>
