<svg id="sec_PCI_DSS" xmlns="http://www.w3.org/2000/svg" width="69.674" height="26.713" viewBox="0 0 69.674 26.713">
  <defs>
    <style>
      .cls-1 {
        fill: #0f5c57;
      }

      .cls-2 {
        fill: #489233;
      }
    </style>
  </defs>
  <g id="Group_75" data-name="Group 75">
    <path id="Path_164" data-name="Path 164" class="cls-1" d="M660.82,422.856c.089,0,.177-.013.266-.013a.075.075,0,0,0,.013.05,9.27,9.27,0,0,0,1.177-.291,1.143,1.143,0,0,0,.733-1.252,1.071,1.071,0,0,0-.822-1.113,11,11,0,0,0-1.442-.19c-.2-.013-.228.113-.228.278,0,.747.013,1.506,0,2.252C660.516,422.806,660.617,422.881,660.82,422.856Z" transform="translate(-650.181 -409.485)"/>
    <path id="Path_165" data-name="Path 165" class="cls-1" d="M737.779,412.974a5.516,5.516,0,0,0,.291-2,6.241,6.241,0,0,0-.2-1.556,3.423,3.423,0,0,0-.632-1.29,2.972,2.972,0,0,0-1.113-.847,4.509,4.509,0,0,0-1.759-.291h-3.681v8.032h3.694a5.489,5.489,0,0,0,1.48-.215,2.785,2.785,0,0,0,1.113-.645A3.306,3.306,0,0,0,737.779,412.974Zm-2.39-.557a1.2,1.2,0,0,1-.519.607,2.619,2.619,0,0,1-1.113.177h-.608v-4.39h.633a1.747,1.747,0,0,1,1.379.468,2.706,2.706,0,0,1,.418,1.745A3.7,3.7,0,0,1,735.389,412.417Z" transform="translate(-684.664 -403.069)"/>
    <path id="Path_166" data-name="Path 166" class="cls-1" d="M753.9,411.043a2.467,2.467,0,0,0-1.024-.885,11.015,11.015,0,0,0-2.34-.708,2.058,2.058,0,0,1-.836-.291.459.459,0,0,1-.176-.342.537.537,0,0,1,.215-.442.993.993,0,0,1,.658-.19,1.274,1.274,0,0,1,.822.253,1.218,1.218,0,0,1,.393.784l2.34-.139a2.442,2.442,0,0,0-.962-1.821,4.086,4.086,0,0,0-2.353-.57,4.95,4.95,0,0,0-1.973.316,2.419,2.419,0,0,0-1.075.873,2.1,2.1,0,0,0-.354,1.176,1.968,1.968,0,0,0,.709,1.556,5.3,5.3,0,0,0,2.327.974,3.215,3.215,0,0,1,1.278.468.725.725,0,0,1,.278.557.75.75,0,0,1-.291.582,1.229,1.229,0,0,1-.822.253,1.3,1.3,0,0,1-1.1-.493,1.725,1.725,0,0,1-.316-.873l-2.365.152a3.005,3.005,0,0,0,.872,1.973,4.05,4.05,0,0,0,2.846.784,4.777,4.777,0,0,0,1.936-.341,2.738,2.738,0,0,0,1.2-.987,2.529,2.529,0,0,0,.43-1.429A2.232,2.232,0,0,0,753.9,411.043Z" transform="translate(-692.647 -402.922)"/>
    <path id="Path_167" data-name="Path 167" class="cls-1" d="M767.474,413.194a1.23,1.23,0,0,1-.822.253,1.307,1.307,0,0,1-1.1-.493,1.738,1.738,0,0,1-.316-.873l-2.365.152a3.006,3.006,0,0,0,.873,1.973,4.049,4.049,0,0,0,2.846.784,4.776,4.776,0,0,0,1.935-.341,2.732,2.732,0,0,0,1.2-.987,2.529,2.529,0,0,0,.43-1.429,2.232,2.232,0,0,0-.316-1.19,2.466,2.466,0,0,0-1.025-.885,11,11,0,0,0-2.34-.708,2.048,2.048,0,0,1-.834-.291.457.457,0,0,1-.177-.342.537.537,0,0,1,.215-.442,1,1,0,0,1,.659-.19,1.274,1.274,0,0,1,.822.253,1.22,1.22,0,0,1,.392.784l2.34-.139a2.445,2.445,0,0,0-.961-1.821,4.088,4.088,0,0,0-2.353-.57,4.952,4.952,0,0,0-1.974.316,2.424,2.424,0,0,0-1.075.873,2.1,2.1,0,0,0-.354,1.176,1.97,1.97,0,0,0,.708,1.556,5.309,5.309,0,0,0,2.328.974,3.208,3.208,0,0,1,1.277.468.725.725,0,0,1,.278.557A.749.749,0,0,1,767.474,413.194Z" transform="translate(-700.482 -402.922)"/>
    <path id="Path_168" data-name="Path 168" class="cls-1" d="M731.841,427.964a.41.41,0,0,1-.329.127.416.416,0,0,1-.341-.152.88.88,0,0,1-.127-.556.941.941,0,0,1,.1-.481.426.426,0,0,1,.393-.2.369.369,0,0,1,.2.051.4.4,0,0,1,.151.139.648.648,0,0,1,.076.164l.671-.152a1.123,1.123,0,0,0-.393-.569,1.217,1.217,0,0,0-.721-.19,1.143,1.143,0,0,0-1.24,1.265,1.44,1.44,0,0,0,.177.746,1.007,1.007,0,0,0,.43.405,1.555,1.555,0,0,0,.645.113,1.3,1.3,0,0,0,.544-.1.932.932,0,0,0,.354-.278,1.224,1.224,0,0,0,.215-.468l-.658-.2A.711.711,0,0,1,731.841,427.964Z" transform="translate(-684.468 -412.481)"/>
    <path id="Path_169" data-name="Path 169" class="cls-1" d="M737.01,426.117a1.234,1.234,0,0,0-.923.33,1.3,1.3,0,0,0-.329.936,1.44,1.44,0,0,0,.152.734,1.08,1.08,0,0,0,.443.418,1.537,1.537,0,0,0,.684.126,1.363,1.363,0,0,0,.682-.152,1.131,1.131,0,0,0,.417-.43,1.639,1.639,0,0,0,.139-.708,1.245,1.245,0,0,0-.329-.924A1.275,1.275,0,0,0,737.01,426.117Zm.4,1.809a.521.521,0,0,1-.759,0,.812.812,0,0,1-.139-.531.741.741,0,0,1,.152-.544.443.443,0,0,1,.368-.164.485.485,0,0,1,.379.164.806.806,0,0,1,.139.506A.89.89,0,0,1,737.414,427.926Z" transform="translate(-687.158 -412.468)"/>
    <path id="Path_170" data-name="Path 170" class="cls-1" d="M743.167,427.71l-.38-1.493h-1l-.013,2.441h.62V426.8l.481,1.86h.556l.481-1.86v1.86h.62v-2.441h-.987Z" transform="translate(-690.116 -412.517)"/>
    <path id="Path_171" data-name="Path 171" class="cls-1" d="M749.658,426.218h-1.252l-.013,2.441h.759v-.911h.418a.981.981,0,0,0,.683-.2.745.745,0,0,0,.228-.582.717.717,0,0,0-.2-.556A.884.884,0,0,0,749.658,426.218Zm0,.961a.434.434,0,0,1-.3.076h-.19v-.531h.215a.426.426,0,0,1,.291.075.26.26,0,0,1,.076.19A.227.227,0,0,1,749.658,427.179Z" transform="translate(-693.367 -412.517)"/>
    <path id="Path_172" data-name="Path 172" class="cls-1" d="M754.3,426.218h-.759v2.454h1.935v-.607H754.3Z" transform="translate(-695.897 -412.517)"/>
    <rect id="Rectangle_121" data-name="Rectangle 121" class="cls-1" width="0.759" height="2.441" transform="translate(60.085 13.7)"/>
    <path id="Path_173" data-name="Path 173" class="cls-1" d="M761.6,426.218l-.923,2.441h.772l.114-.4h.86l.127.4h.8l-.923-2.441Zm.14,1.5.265-.873.266.873Z" transform="translate(-699.406 -412.517)"/>
    <path id="Path_174" data-name="Path 174" class="cls-1" d="M768.306,427.571l-.923-1.353h-.709l.013,2.441h.708v-1.341l.911,1.341h.709v-2.441h-.709Z" transform="translate(-702.352 -412.517)"/>
    <path id="Path_175" data-name="Path 175" class="cls-1" d="M772.172,426.825h.771v1.846h.759v-1.846h.772v-.607h-2.3Z" transform="translate(-705.053 -412.517)"/>
    <path id="Path_176" data-name="Path 176" class="cls-1" d="M716.208,428.408c-.62.886-1.267,1.868-1.926,2.954l2.838-.893c-.088-.177-.126-.3-.177-.43Q716.576,429.227,716.208,428.408Z" transform="translate(-676.604 -413.594)"/>
    <path id="Path_177" data-name="Path 177" class="cls-1" d="M672.868,399.279l-13.345.759q-8.653.475-17.317.962c-.658.038-1.316.088-2.011.127,2.062,5.629,4.111,11.195,6.186,16.811a.545.545,0,0,1,.063-.013V407.918c0-.2-.037-.418.3-.418,1.771.025,3.542,0,5.313.038a7.4,7.4,0,0,1,3.023.671,3.232,3.232,0,0,1,1.708,4.275,3.7,3.7,0,0,1-2.365,2.087,9.358,9.358,0,0,1-3.44.481c-.316,0-.431.076-.418.4.025.81,0,1.619.013,2.429.012.29-.064.392-.379.392-1.1-.025-2.189-.012-3.289-.012-.127,0-.253.012-.418.025.936,2.542,1.859,5.035,2.77,7.527.089.24.228.177.393.127q8.627-2.717,17.263-5.433c-.3-.376-.621-.793-.984-1.259l-.151-.2-.038-.253a2.3,2.3,0,0,1-.031-.39,10.167,10.167,0,0,1-4.662-.7,4.867,4.867,0,0,1-3.289-4.668,5.035,5.035,0,0,1,2.935-4.832,7.885,7.885,0,0,1,3.415-.9,9.885,9.885,0,0,1,3.744.379.4.4,0,0,1,.341.468c-.025.721-.012,1.454-.012,2.188,0,.1-.013.215-.025.367a3.883,3.883,0,0,0-.405-.164,5.592,5.592,0,0,0-3.39-.506,2.613,2.613,0,0,0-2.252,2.542,2.7,2.7,0,0,0,1.758,2.9,4.99,4.99,0,0,0,2.884.164c.544-.113,1.075-.29,1.645-.442a1.712,1.712,0,0,1,.038.228c0,.128,0,.259,0,.388a1.424,1.424,0,0,1,.328.068,3.926,3.926,0,0,1,1.293.775c.008-2.937.009-5.868,0-8.808,0-.291.089-.379.38-.379,1.113.012,2.239,0,3.352,0,.443,0,.443,0,.443.43v6.42c.313-.441.635-.894.961-1.347,1.042-1.453,1.875-2.584,2.544-3.467q-2.24-4.971-4.467-9.942C673.2,399.392,673.121,399.266,672.868,399.279Zm1.783,4.845a2.522,2.522,0,1,1-2.517-2.366A2.314,2.314,0,0,1,674.651,404.124Z" transform="translate(-640.194 -399.278)"/>
  </g>
  <path id="Path_178" data-name="Path 178" class="cls-2" d="M710.223,413.42a2.027,2.027,0,0,0-.278-.012,8.706,8.706,0,0,0-3.2.708c-1.176.519-9.3,12.4-9.3,12.4s-2.605-2.53-3.352-2.72a.769.769,0,0,0-.177-.025,1.718,1.718,0,0,0-1.531,1.8s3.277,4.226,3.605,4.428a3.61,3.61,0,0,0,1.569.329,2.261,2.261,0,0,0,1.846-.772C704.91,417.721,711.045,413.484,710.223,413.42Z" transform="translate(-665.836 -406.222)"/>
</svg>
