<svg id="btn_Social_Whatsapp" xmlns="http://www.w3.org/2000/svg" width="23.892" height="25.015" viewBox="0 0 23.892 25.015">
  <defs>
    <style>
      .cls-1 {
        fill: #007dc4;
      }
    </style>
  </defs>
  <path id="Path_134" data-name="Path 134" class="cls-1" d="M610.164,243.512a4.932,4.932,0,0,0-4.916,4.427,4.5,4.5,0,0,0-.025.476,4.857,4.857,0,0,0,.941,2.875l-.616,1.821,1.9-.605a4.945,4.945,0,0,0,7.66-4.091c0-.13-.006-.256-.017-.382A4.931,4.931,0,0,0,610.164,243.512Zm2.883,6.924a1.435,1.435,0,0,1-.971.68c-.264.025-.264.215-1.731-.354a5.918,5.918,0,0,1-2.459-2.16,3.241,3.241,0,0,1-.514-.99,1.818,1.818,0,0,1-.074-.487,1.6,1.6,0,0,1,.5-1.194.534.534,0,0,1,.385-.179c.1,0,.193.014.275.014s.206-.049.325.237.41.99.446,1.062a.255.255,0,0,1,.011.25,1.485,1.485,0,0,1-.091.171c-.017.022-.033.044-.052.069-.075.083-.151.185-.217.251s-.146.148-.064.291a4.274,4.274,0,0,0,.8.988,3.89,3.89,0,0,0,1.158.71c.146.071.228.06.313-.036s.361-.415.457-.558.193-.121.325-.072.839.394.985.465.239.107.275.165A1.187,1.187,0,0,1,613.047,250.436Z" transform="translate(-598.109 -236.061)"/>
  <path id="Path_135" data-name="Path 135" class="cls-1" d="M614.9,243.041a4.741,4.741,0,0,1,1.806-3.724,12.5,12.5,0,0,0-2.615-4.619,4.751,4.751,0,0,1-6.539-3.863,12.479,12.479,0,0,0-5.58,0,4.75,4.75,0,0,1-6.54,3.864,12.485,12.485,0,0,0-2.618,4.617,4.744,4.744,0,0,1,.011,7.446,12.488,12.488,0,0,0,2.607,4.593,4.752,4.752,0,0,1,6.539,3.864,12.476,12.476,0,0,0,5.58,0,4.752,4.752,0,0,1,6.54-3.864,12.484,12.484,0,0,0,2.609-4.591A4.741,4.741,0,0,1,614.9,243.041ZM604.872,248.7a5.885,5.885,0,0,1-2.84-.727l-3.255,1.034,1.059-3.128a5.788,5.788,0,0,1-.842-3.013c0-.085,0-.171.006-.256a5.878,5.878,0,0,1,11.745.107c0,.05,0,.1,0,.149A5.854,5.854,0,0,1,604.872,248.7Z" transform="translate(-592.817 -230.518)"/>
</svg>
