<svg id="btn_GooglePlay" xmlns="http://www.w3.org/2000/svg" xmlns:xlink="http://www.w3.org/1999/xlink" width="61.092" height="18.101" viewBox="0 0 61.092 18.101">
  <defs>
    <style>
      .cls-1 {
        fill: #496571;
      }

      .cls-2, .cls-7 {
        fill: #fff;
      }

      .cls-3 {
        fill: #40bff2;
      }

      .cls-4 {
        fill: url(#linear-gradient);
      }

      .cls-5 {
        fill: url(#linear-gradient-2);
      }

      .cls-6 {
        fill: url(#linear-gradient-3);
      }

      .cls-7 {
        stroke: #fff;
        stroke-miterlimit: 10;
        stroke-width: 0.2px;
      }
    </style>
    <linearGradient id="linear-gradient" x1="0.807" y1="0.5" x2="-1.573" y2="0.5" gradientUnits="objectBoundingBox">
      <stop offset="0" stop-color="gold"/>
      <stop offset="0.075" stop-color="#fece00"/>
      <stop offset="0.48" stop-color="#fca704"/>
      <stop offset="0.803" stop-color="#fa8e07"/>
      <stop offset="1" stop-color="#fa8608"/>
    </linearGradient>
    <linearGradient id="linear-gradient-2" x1="0.862" y1="0.178" x2="-0.501" y2="1.948" gradientUnits="objectBoundingBox">
      <stop offset="0" stop-color="#e82b36"/>
      <stop offset="1" stop-color="#b4005a"/>
    </linearGradient>
    <linearGradient id="linear-gradient-3" x1="-0.507" y1="-0.956" x2="0.606" y2="0.489" gradientUnits="objectBoundingBox">
      <stop offset="0" stop-color="#2f8e5b"/>
      <stop offset="0.39" stop-color="#4ea157"/>
      <stop offset="0.768" stop-color="#67b054"/>
      <stop offset="1" stop-color="#70b653"/>
    </linearGradient>
  </defs>
  <rect id="Rectangle_86" data-name="Rectangle 86" class="cls-1" width="61.092" height="18.101" rx="2.263"/>
  <path id="Path_106" data-name="Path 106" class="cls-2" d="M127.475,1334a1.925,1.925,0,1,0,1.932,1.924A1.9,1.9,0,0,0,127.475,1334Zm0,3.091a1.169,1.169,0,1,1,1.086-1.167A1.113,1.113,0,0,1,127.475,1337.094ZM123.26,1334a1.925,1.925,0,1,0,1.932,1.924A1.9,1.9,0,0,0,123.26,1334Zm0,3.091a1.169,1.169,0,1,1,1.087-1.167A1.113,1.113,0,0,1,123.26,1337.094Zm-5.013-2.5v.817H120.2a1.713,1.713,0,0,1-.445,1.028,2,2,0,0,1-1.509.6,2.173,2.173,0,0,1,0-4.345,2.083,2.083,0,0,1,1.473.583l.575-.575a2.845,2.845,0,0,0-2.048-.824,2.989,2.989,0,1,0,0,5.978,2.736,2.736,0,0,0,2.085-.838,2.7,2.7,0,0,0,.707-1.911,2.6,2.6,0,0,0-.044-.51Zm20.5.634A1.787,1.787,0,0,0,137.1,1334a1.829,1.829,0,0,0-1.816,1.924,1.884,1.884,0,0,0,1.911,1.925,1.913,1.913,0,0,0,1.6-.853l-.656-.437a1.1,1.1,0,0,1-.947.532.979.979,0,0,1-.934-.584l2.574-1.064Zm-2.624.642a1.056,1.056,0,0,1,1.006-1.123.745.745,0,0,1,.714.408Zm-2.093,1.866h.846v-5.657h-.846Zm-1.385-3.3h-.029a1.334,1.334,0,0,0-1.013-.43,1.926,1.926,0,0,0,0,3.849,1.314,1.314,0,0,0,1.013-.437h.029v.277c0,.736-.393,1.13-1.028,1.13a1.064,1.064,0,0,1-.969-.686l-.737.306a1.835,1.835,0,0,0,1.706,1.138,1.759,1.759,0,0,0,1.83-2.005v-3.456h-.8Zm-.969,2.661a1.171,1.171,0,0,1,0-2.333,1.176,1.176,0,0,1,0,2.333Zm11.033-5.016h-2.024v5.657h.845v-2.143h1.179a1.76,1.76,0,1,0,0-3.514Zm.022,2.727h-1.2v-1.94h1.2a.97.97,0,1,1,0,1.94Zm5.218-.813a1.584,1.584,0,0,0-1.506.866l.749.313a.8.8,0,0,1,.772-.415.814.814,0,0,1,.888.728v.058a1.875,1.875,0,0,0-.881-.218c-.808,0-1.63.444-1.63,1.274a1.306,1.306,0,0,0,1.4,1.244,1.191,1.191,0,0,0,1.078-.553h.029v.437h.815v-2.169A1.553,1.553,0,0,0,147.952,1333.992Zm-.1,3.1c-.276,0-.662-.139-.662-.481,0-.436.48-.6.895-.6a1.509,1.509,0,0,1,.772.189A1.025,1.025,0,0,1,147.85,1337.093Zm4.789-2.977-.968,2.453h-.029l-1-2.453h-.91l1.507,3.428-.859,1.907h.88l2.322-5.335Zm-7.605,3.619h.844v-5.657h-.844Z" transform="translate(-96.641 -1324.159)"/>
  <g id="Group_64" data-name="Group 64" transform="translate(-96.641 -1324.159)">
    <g id="Group_63" data-name="Group 63">
      <g id="Group_62" data-name="Group 62">
        <path id="Path_107" data-name="Path 107" class="cls-3" d="M101.363,1327.575a.907.907,0,0,0-.209.635v10a.907.907,0,0,0,.209.635l.034.033,5.6-5.6v-.132l-5.6-5.6Z"/>
        <path id="Path_108" data-name="Path 108" class="cls-4" d="M108.866,1335.144,107,1333.276v-.132l1.868-1.868.042.024,2.213,1.257a.687.687,0,0,1,0,1.306l-2.213,1.257Z"/>
        <path id="Path_109" data-name="Path 109" class="cls-5" d="M108.908,1335.12l-1.91-1.91-5.635,5.635a.736.736,0,0,0,.94.028l6.6-3.753"/>
        <path id="Path_110" data-name="Path 110" class="cls-6" d="M108.908,1331.3l-6.6-3.753a.736.736,0,0,0-.94.028L107,1333.21Z"/>
      </g>
    </g>
  </g>
  <path id="Path_111" data-name="Path 111" class="cls-7" d="M115.348,1330.042v-2.715h.83a1.355,1.355,0,0,1,1,.377,1.469,1.469,0,0,1,0,1.961,1.355,1.355,0,0,1-1,.377Zm.349-.334h.481a1.015,1.015,0,0,0,.745-.269,1.026,1.026,0,0,0-.745-1.778H115.7Z" transform="translate(-96.641 -1324.159)"/>
  <path id="Path_112" data-name="Path 112" class="cls-7" d="M118.044,1330.042v-2.715h.349v2.715Z" transform="translate(-96.641 -1324.159)"/>
  <path id="Path_113" data-name="Path 113" class="cls-7" d="M119.781,1330.1a1.018,1.018,0,0,1-.578-.193.894.894,0,0,1-.37-.543l.319-.129a.724.724,0,0,0,.233.377.585.585,0,0,0,.4.154.64.64,0,0,0,.389-.119.385.385,0,0,0,.161-.325.416.416,0,0,0-.161-.35,1.663,1.663,0,0,0-.51-.23,1.359,1.359,0,0,1-.546-.294.613.613,0,0,1-.186-.461.676.676,0,0,1,.231-.508.847.847,0,0,1,.6-.216.872.872,0,0,1,.561.173.8.8,0,0,1,.281.377l-.318.133a.475.475,0,0,0-.169-.239.591.591,0,0,0-.69,0,.337.337,0,0,0-.143.278.318.318,0,0,0,.131.257,1.261,1.261,0,0,0,.385.187,3.44,3.44,0,0,1,.336.125,1.54,1.54,0,0,1,.272.162.631.631,0,0,1,.209.25.806.806,0,0,1,.07.347.749.749,0,0,1-.081.352.66.66,0,0,1-.217.247,1.038,1.038,0,0,1-.289.138A1.078,1.078,0,0,1,119.781,1330.1Z" transform="translate(-96.641 -1324.159)"/>
  <path id="Path_114" data-name="Path 114" class="cls-7" d="M121.537,1330.042h-.349v-2.715h.925a.855.855,0,0,1,.6.229.788.788,0,0,1,0,1.157.855.855,0,0,1-.6.229h-.576Zm0-1.434h.584a.453.453,0,0,0,.353-.147.469.469,0,0,0,0-.652.45.45,0,0,0-.353-.148h-.584Z" transform="translate(-96.641 -1324.159)"/>
  <path id="Path_115" data-name="Path 115" class="cls-7" d="M125.623,1329.691a1.409,1.409,0,0,1-1.991,0,1.466,1.466,0,0,1,0-2.013,1.4,1.4,0,0,1,1.989,0,1.461,1.461,0,0,1,0,2.011Zm-1.733-.227a1.044,1.044,0,0,0,1.475,0,1.157,1.157,0,0,0,0-1.559,1.044,1.044,0,0,0-1.475,0,1.157,1.157,0,0,0,0,1.559Z" transform="translate(-96.641 -1324.159)"/>
  <path id="Path_116" data-name="Path 116" class="cls-7" d="M126.512,1330.042v-2.715h.425l1.32,2.112h.015l-.015-.523v-1.589h.349v2.715h-.364l-1.381-2.214h-.015l.015.523v1.691Z" transform="translate(-96.641 -1324.159)"/>
  <path id="Path_117" data-name="Path 117" class="cls-7" d="M129.228,1330.042v-2.715h.348v2.715Zm.326-2.927h-.3l.2-.486h.379Z" transform="translate(-96.641 -1324.159)"/>
  <path id="Path_118" data-name="Path 118" class="cls-7" d="M130.869,1330.042l-.955-2.715h.387l.743,2.2h.015l.774-2.2h.386l-.985,2.715Z" transform="translate(-96.641 -1324.159)"/>
  <path id="Path_119" data-name="Path 119" class="cls-7" d="M134.2,1327.661h-1.237v.86h1.115v.327h-1.115v.86H134.2v.334h-1.585v-2.715H134.2Z" transform="translate(-96.641 -1324.159)"/>
  <path id="Path_120" data-name="Path 120" class="cls-7" d="M134.745,1330.042v-2.715h.349v2.381h1.175v.334Z" transform="translate(-96.641 -1324.159)"/>
  <path id="Path_121" data-name="Path 121" class="cls-7" d="M137.619,1330.042v-2.715h.425l1.32,2.112h.015l-.015-.523v-1.589h.349v2.715h-.364l-1.381-2.214h-.015l.015.523v1.691Z" transform="translate(-96.641 -1324.159)"/>
  <path id="Path_122" data-name="Path 122" class="cls-7" d="M142.555,1329.691a1.409,1.409,0,0,1-1.991,0,1.466,1.466,0,0,1,0-2.013,1.405,1.405,0,0,1,1.99,0,1.462,1.462,0,0,1,0,2.011Zm-1.733-.227a1.044,1.044,0,0,0,1.475,0,1.157,1.157,0,0,0,0-1.559,1.044,1.044,0,0,0-1.475,0,1.16,1.16,0,0,0,0,1.559Z" transform="translate(-96.641 -1324.159)"/>
</svg>
