<svg id="btn_Social_Youtube" xmlns="http://www.w3.org/2000/svg" width="23.892" height="25.015" viewBox="0 0 23.892 25.015">
  <defs>
    <style>
      .cls-1 {
        fill: #007dc4;
      }
    </style>
  </defs>
  <path id="Path_136" data-name="Path 136" class="cls-1" d="M564.66,243.041a4.741,4.741,0,0,1,1.806-3.724,12.5,12.5,0,0,0-2.615-4.619,4.752,4.752,0,0,1-6.54-3.863,12.476,12.476,0,0,0-5.58,0,4.751,4.751,0,0,1-6.54,3.864,12.493,12.493,0,0,0-2.617,4.617,4.745,4.745,0,0,1,.011,7.446,12.5,12.5,0,0,0,2.607,4.593,4.752,4.752,0,0,1,6.539,3.864,12.479,12.479,0,0,0,5.58,0,4.752,4.752,0,0,1,6.54-3.864,12.493,12.493,0,0,0,2.61-4.591A4.741,4.741,0,0,1,564.66,243.041Zm-3.6,3.291a1.715,1.715,0,0,1-1.206,1.214,49.731,49.731,0,0,1-10.665,0,1.716,1.716,0,0,1-1.206-1.214,19.326,19.326,0,0,1,0-6.613,1.716,1.716,0,0,1,1.206-1.214,49.731,49.731,0,0,1,10.665,0,1.715,1.715,0,0,1,1.206,1.214,19.285,19.285,0,0,1,0,6.613Z" transform="translate(-542.574 -230.518)"/>
  <path id="Path_137" data-name="Path 137" class="cls-1" d="M560.972,252.85l3.567-2.029-3.567-2.029Z" transform="translate(-550.423 -238.313)"/>
</svg>
