<svg id="ic_produtos_ferramentas" xmlns="http://www.w3.org/2000/svg" width="24" height="24" viewBox="0 0 24 24">
  <defs>
    <style>
      .cls-1 {
        fill: #496571;
      }

      .cls-2 {
        fill: none;
      }
    </style>
  </defs>
  <g id="Group_7" data-name="Group 7" transform="translate(-28.511 -43.596)">
    <path id="Path_19" data-name="Path 19" class="cls-1" d="M46.715,46.8l-5.11,5.11,2.57,2.57,5.126-5.11a1.824,1.824,0,0,0,0-2.57A1.843,1.843,0,0,0,46.715,46.8Z"/>
    <path id="Path_20" data-name="Path 20" class="cls-1" d="M43.243,55.425l-2.585-2.57-.421-.421a.725.725,0,0,1-.195-.721,4.1,4.1,0,0,0,.12-1.428,4.206,4.206,0,0,0-.451-1.593,4.3,4.3,0,0,0-.992-1.278,4.219,4.219,0,0,0-1.4-.826,4.35,4.35,0,0,0-2.1-.2.45.45,0,0,0-.24.767l1.758,1.758a1.878,1.878,0,0,1,.045,2.615,1.8,1.8,0,0,1-1.292.526,1.822,1.822,0,0,1-1.293-.541l-1.8-1.773a.461.461,0,0,0-.316-.135.452.452,0,0,0-.451.39,3.865,3.865,0,0,0-.045.586,4.421,4.421,0,0,0,3.893,4.344,3.655,3.655,0,0,0,.4.015,4.155,4.155,0,0,0,1.067-.135.786.786,0,0,1,.737.21l.406.406.721.722,1.067,1.067.782.781,5.831,5.832a1.823,1.823,0,1,0,2.586-2.57Z"/>
    <path id="Path_21" data-name="Path 21" class="cls-1" d="M35.774,62.189l-.03-.376a.644.644,0,0,1,.195-.511L37.7,59.544a.117.117,0,0,1,.166,0,.908.908,0,0,0,1.292,0l.587-.587-.722-.721-.571-.571-.571-.571-.722-.722-.586.586a.909.909,0,0,0,0,1.293.118.118,0,0,1,0,.165L34.8,60.175a.648.648,0,0,1-.511.195l-.376-.03a.45.45,0,0,0-.391.165L31.3,63.241a.461.461,0,0,0,.03.616l.466.466.466.466a.458.458,0,0,0,.616.03L35.608,62.6A.608.608,0,0,0,35.774,62.189Z"/>
  </g>
  <path id="Path_14" data-name="Path 14" class="cls-2" d="M28.511,43.6h24v24h-24Z" transform="translate(-28.511 -43.596)"/>
</svg>
