<svg xmlns="http://www.w3.org/2000/svg" width="24" height="24" viewBox="0 0 24 24">
  <defs>
    <style>
      .cls-1 {
        fill: none;
      }

      .cls-2 {
        fill: #496571;
      }
    </style>
  </defs>
  <g id="ic_produtos_oleos" transform="translate(0 0)">
    <path id="Path_14" data-name="Path 14" class="cls-1" d="M364.491,43.387h24v24h-24Z" transform="translate(-364.491 -43.387)"/>
    <g id="Group_13" data-name="Group 13" transform="translate(-364.491 -43.387)">
      <path id="Path_34" data-name="Path 34" class="cls-2" d="M381.958,54.74q-.076-.114-.793-1.148t-1.281-1.916q-.566-.882-1.262-2.258a15.728,15.728,0,0,1-1.053-2.557,1.01,1.01,0,0,0-.425-.6,1.168,1.168,0,0,0-.653-.215,1.135,1.135,0,0,0-.647.215,1.07,1.07,0,0,0-.432.6,15.818,15.818,0,0,1-1.053,2.557q-.7,1.375-1.262,2.258t-1.281,1.916q-.717,1.033-.793,1.148a6.49,6.49,0,0,0-1.028,3.489,6.5,6.5,0,0,0,12.991,0A6.367,6.367,0,0,0,381.958,54.74ZM376.015,61a1.623,1.623,0,0,1-2.772-1.149,1.665,1.665,0,0,1,.253-.875c.009-.008.074-.1.2-.285s.231-.343.324-.482a5.647,5.647,0,0,0,.317-.559,4.009,4.009,0,0,0,.266-.64.276.276,0,0,1,.533,0,3.927,3.927,0,0,0,.267.64,5.641,5.641,0,0,0,.317.559l.323.482c.123.182.188.277.2.285a1.666,1.666,0,0,1,.254.875A1.566,1.566,0,0,1,376.015,61Z"/>
    </g>
  </g>
</svg>
