<svg xmlns="http://www.w3.org/2000/svg" width="24" height="24" viewBox="0 0 24 24">
  <defs>
    <style>
      .cls-1 {
        fill: none;
      }

      .cls-2 {
        fill: #496571;
      }
    </style>
  </defs>
  <g id="ic_produtos_motores" transform="translate(0 0)">
    <path id="Path_14" data-name="Path 14" class="cls-1" d="M108.453,43.8h24v24h-24Z" transform="translate(-108.453 -43.796)"/>
    <path id="Path_24" data-name="Path 24" class="cls-2" d="M129.894,52.593h-.674a.674.674,0,0,0-.674.674v1.686h-.675V53.267a1.012,1.012,0,0,0-1.011-1.012h-5.4v-.674h1.686a.674.674,0,0,0,.674-.674V50.57a1.687,1.687,0,0,0-1.686-1.686h-3.372a1.689,1.689,0,0,0-1.686,1.686v.337a.675.675,0,0,0,.675.674h1.686v.674h-.368a1.389,1.389,0,0,0-.75.226l-2.517,1.682a.716.716,0,0,1-.381.116h-1.042a1.011,1.011,0,0,0-1.012,1.011v2.36h-1.011V55.964a.675.675,0,0,0-.675-.674h-.674a.674.674,0,0,0-.674.674v5.4a.675.675,0,0,0,.674.675h.674a.675.675,0,0,0,.675-.675V59.673h1.011V61.7a1.012,1.012,0,0,0,1.012,1.012h7.081a1.356,1.356,0,0,0,.809-.27l3.507-2.63a.683.683,0,0,1,.4-.135h.675a1.011,1.011,0,0,0,1.011-1.011V56.976h.675v1.686a.674.674,0,0,0,.674.674h.674a.675.675,0,0,0,.675-.674v-5.4A.675.675,0,0,0,129.894,52.593Zm-18.208,8.766h-.674v-5.4h.674ZM113.372,59h-1.011v-.674h1.011Zm4.384-8.092V50.57a1.012,1.012,0,0,1,1.011-1.012h3.372a1.012,1.012,0,0,1,1.012,1.012v.337Zm3.034.674v.674h-.674v-.674Zm7.756,4.721h-.675v-.675h.675Zm1.348,2.36h-.674v-5.4h.674Z" transform="translate(-108.453 -43.796)"/>
  </g>
</svg>
