<svg id="pgt_Dinners" xmlns="http://www.w3.org/2000/svg" width="34.885" height="23.257" viewBox="0 0 34.885 23.257">
  <defs>
    <style>
      .cls-1 {
        fill: #f2f3f4;
      }

      .cls-1, .cls-4 {
        fill-rule: evenodd;
      }

      .cls-2 {
        fill: #c6c6c6;
      }

      .cls-3, .cls-4 {
        fill: #003e84;
      }
    </style>
  </defs>
  <g id="diners-club-international-v2">
    <path id="Path" class="cls-1" d="M167.678,275.016a2.916,2.916,0,0,1-2.907,2.907H135.7a2.916,2.916,0,0,1-2.907-2.907V257.574a2.916,2.916,0,0,1,2.907-2.907h29.071a2.916,2.916,0,0,1,2.907,2.907Z" transform="translate(-132.793 -254.667)"/>
    <path id="Shape" class="cls-2" d="M164.771,254.667H135.7a2.916,2.916,0,0,0-2.907,2.907v17.442a2.916,2.916,0,0,0,2.907,2.907h29.071a2.916,2.916,0,0,0,2.907-2.907V257.574A2.916,2.916,0,0,0,164.771,254.667Zm0,.581a2.328,2.328,0,0,1,2.326,2.326v17.442a2.328,2.328,0,0,1-2.326,2.326H135.7a2.328,2.328,0,0,1-2.326-2.326V257.574a2.328,2.328,0,0,1,2.326-2.326Z" transform="translate(-132.793 -254.667)"/>
    <path id="Path_191" data-name="Path 191" class="cls-3" d="M161.512,270.829a4.885,4.885,0,1,0-4.933,4.883A4.875,4.875,0,0,0,161.512,270.829Zm-4.758,5.329c-.04-.009-.49-.023-.53-.026A4.905,4.905,0,0,1,155,275.9a5.3,5.3,0,0,1-2.476-1.635,5.111,5.111,0,0,1-1.23-2.792c-.014-.118-.031-.236-.047-.354v-.514a1.018,1.018,0,0,0,.025-.109c.029-.234.045-.469.087-.7a5.042,5.042,0,0,1,1.349-2.658,5.221,5.221,0,0,1,3.283-1.583c.118-.013.667-.031.784-.046,1.021,0,2.709.022,2.748.026.156.017.314.023.469.048a5.569,5.569,0,0,1,2.924,1.362,5.108,5.108,0,0,1,1.745,4.308,4.279,4.279,0,0,1-.459,1.7,5.625,5.625,0,0,1-4.465,3.154C159.627,276.127,157.776,276.158,156.755,276.158Z" transform="translate(-140.518 -259.207)"/>
    <path id="Path_192" data-name="Path 192" class="cls-4" d="M162.438,275.451v-5.689a3.048,3.048,0,0,1,0,5.689Z" transform="translate(-145.202 -260.986)"/>
    <path id="Path_193" data-name="Path 193" class="cls-4" d="M157.168,275.451a3.052,3.052,0,0,1,0-5.694Z" transform="translate(-142.179 -260.983)"/>
  </g>
</svg>
