<svg id="pgt_AmericanExpress" xmlns="http://www.w3.org/2000/svg" width="34.885" height="23.257" viewBox="0 0 34.885 23.257">
  <defs>
    <style>
      .cls-1 {
        fill: #f2f3f4;
        fill-rule: evenodd;
      }

      .cls-2 {
        fill: #c6c6c6;
      }

      .cls-3 {
        fill: #008acf;
      }
    </style>
  </defs>
  <g id="Artboard">
    <path id="Shape" class="cls-1" d="M241.244,224.948a2.916,2.916,0,0,1-2.907,2.907H209.266a2.916,2.916,0,0,1-2.907-2.907V207.506a2.916,2.916,0,0,1,2.907-2.907h29.071a2.916,2.916,0,0,1,2.907,2.907Z" transform="translate(-206.359 -204.599)"/>
    <path id="Path_185" data-name="Path 185" class="cls-2" d="M238.337,204.6H209.266a2.916,2.916,0,0,0-2.907,2.907v17.442a2.916,2.916,0,0,0,2.907,2.907h29.071a2.916,2.916,0,0,0,2.907-2.907V207.506A2.916,2.916,0,0,0,238.337,204.6Zm0,.581a2.328,2.328,0,0,1,2.326,2.326v17.442a2.328,2.328,0,0,1-2.326,2.326H209.266a2.328,2.328,0,0,1-2.326-2.326V207.506a2.328,2.328,0,0,1,2.326-2.326Z" transform="translate(-206.359 -204.599)"/>
    <path id="Path_186" data-name="Path 186" class="cls-3" d="M219.821,221.3l.691,1.592h-1.436Zm12.686,2.495h-2.4v-.863h2.4v-.784h-2.4v-.706h2.4v-.667l1.781,1.781-1.781,1.789Zm2.487-1.867-1.177-1.271H229.1v3.923h4.566l1.295-1.287,1.3,1.287h1.216l-1.859-1.985,1.915-1.938h-1.271Zm-6.8-1.271h-1.648l-1.24,2.629-1.334-2.629h-1.648v3.805l-1.7-3.805h-1.545l-1.82,3.923h1.114l.369-.894h2.118l.424.894h2.048V221.39l1.451,3.193h.957l1.444-3.138v3.138h1.012Zm-8.018,3.9h0Zm-.719-.058-.37.866h-3.319l2.62-5.492h6.257l.631,1.213.59-1.213H234.3l.721.754.774-.754h3.918l-2.781,2.74,2.661,2.752H235.8l-.848-.809-.841.809H220.58l-.407-.866Z" transform="translate(-210.296 -210.994)"/>
  </g>
</svg>
