<svg id="pgt_Visa" xmlns="http://www.w3.org/2000/svg" width="34.885" height="23.257" viewBox="0 0 34.885 23.257">
  <defs>
    <style>
      .cls-1 {
        fill: #f2f3f4;
      }

      .cls-1, .cls-4 {
        fill-rule: evenodd;
      }

      .cls-2 {
        fill: #c6c6c6;
      }

      .cls-3, .cls-4 {
        fill: #0e276c;
      }
    </style>
  </defs>
  <g id="Artboard">
    <g id="visa" transform="translate(0)">
      <path id="Path" class="cls-1" d="M94.111,223.4a2.916,2.916,0,0,1-2.907,2.907H62.133a2.916,2.916,0,0,1-2.907-2.907V205.958a2.916,2.916,0,0,1,2.907-2.907H91.2a2.916,2.916,0,0,1,2.907,2.907Z" transform="translate(-59.226 -203.051)"/>
      <path id="Shape" class="cls-2" d="M91.2,203.051H62.133a2.916,2.916,0,0,0-2.907,2.907V223.4a2.916,2.916,0,0,0,2.907,2.907H91.2a2.916,2.916,0,0,0,2.907-2.907V205.958A2.916,2.916,0,0,0,91.2,203.051Zm0,.581a2.328,2.328,0,0,1,2.326,2.326V223.4a2.328,2.328,0,0,1-2.326,2.326H62.133a2.328,2.328,0,0,1-2.326-2.326V205.958a2.328,2.328,0,0,1,2.326-2.326Z" transform="translate(-59.226 -203.051)"/>
      <path id="Path_181" data-name="Path 181" class="cls-3" d="M99.232,221.73c-.161-.77-.319-1.527-.477-2.284l-.023,0-.829,2.286Zm-3.808,2.2c.1-.23.19-.456.284-.682l2.1-5.022a.736.736,0,0,1,.737-.492q.613,0,1.226,0c.078,0,.113.016.131.1q.62,2.99,1.248,5.977c.008.039.013.079.02.124H99.693c-.056-.268-.116-.532-.164-.8-.018-.1-.058-.127-.158-.127-.607.005-1.215,0-1.822,0a.132.132,0,0,0-.149.105c-.084.251-.175.5-.27.746a.134.134,0,0,1-.1.075c-.523,0-1.045,0-1.568,0A.206.206,0,0,1,95.424,223.925Z" transform="translate(-74.378 -209.195)"/>
      <path id="Path_182" data-name="Path 182" class="cls-4" d="M92.551,217.812c-.093.435-.185.865-.278,1.3-.176-.059-.344-.123-.516-.17a2.506,2.506,0,0,0-1.156-.075,1.082,1.082,0,0,0-.4.168.386.386,0,0,0-.015.666,7.182,7.182,0,0,0,.617.383c.258.156.53.291.772.469a1.563,1.563,0,0,1,.611,1.812,2.021,2.021,0,0,1-1.329,1.355,4.105,4.105,0,0,1-1.836.21,4.626,4.626,0,0,1-1.154-.231c-.062-.021-.122-.046-.191-.073q.146-.684.286-1.341c.266.094.52.2.784.273a2.478,2.478,0,0,0,1.2.056,1.23,1.23,0,0,0,.445-.2.437.437,0,0,0,.034-.7,4.221,4.221,0,0,0-.565-.379c-.29-.179-.6-.327-.874-.53a1.578,1.578,0,0,1-.274-2.313,2.384,2.384,0,0,1,1.375-.841,4.118,4.118,0,0,1,2.377.127C92.49,217.786,92.517,217.8,92.551,217.812Z" transform="translate(-71.134 -209.112)"/>
      <path id="Path_183" data-name="Path 183" class="cls-4" d="M85.944,217.738c-.042.2-.083.4-.126.6q-.582,2.72-1.161,5.441c-.025.118-.065.158-.19.155-.438-.009-.876,0-1.313,0h-.136c.041-.194.08-.376.119-.558q.595-2.779,1.189-5.559c.012-.058.025-.091.095-.091.49,0,.979,0,1.468,0C85.9,217.729,85.916,217.734,85.944,217.738Z" transform="translate(-69.185 -209.194)"/>
      <path id="Path_184" data-name="Path 184" class="cls-4" d="M71.175,217.728h2.669a.747.747,0,0,1,.807.669l.659,3.487a.4.4,0,0,0,.016.044c.024-.052.042-.088.056-.125q.785-1.982,1.566-3.966a.149.149,0,0,1,.167-.112c.479,0,.957,0,1.435,0h.125c-.024.062-.042.113-.063.162q-1.245,2.973-2.49,5.946a.131.131,0,0,1-.143.1q-.751-.006-1.5,0c-.078,0-.105-.024-.124-.1-.421-1.636-.847-3.271-1.266-4.908a.751.751,0,0,0-.427-.526,7.23,7.23,0,0,0-1.44-.478l-.08-.022c.006-.031.01-.059.016-.087S71.168,217.766,71.175,217.728Z" transform="translate(-64.213 -209.193)"/>
    </g>
  </g>
</svg>
