<svg id="pgt_Elo" xmlns="http://www.w3.org/2000/svg" width="34.885" height="23.257" viewBox="0 0 34.885 23.257">
  <defs>
    <style>
      .cls-1 {
        fill: #f2f3f4;
      }

      .cls-1, .cls-4, .cls-5, .cls-6 {
        fill-rule: evenodd;
      }

      .cls-2 {
        fill: #c6c6c6;
      }

      .cls-3 {
        fill: #040505;
      }

      .cls-4 {
        fill: #e52921;
      }

      .cls-5 {
        fill: #0095d7;
      }

      .cls-6 {
        fill: #ffbe1c;
      }
    </style>
  </defs>
  <g id="Group_79" data-name="Group 79">
    <path id="Shape" class="cls-1" d="M318.18,224.948a2.916,2.916,0,0,1-2.907,2.907H286.2a2.916,2.916,0,0,1-2.907-2.907V207.506A2.916,2.916,0,0,1,286.2,204.6h29.071a2.916,2.916,0,0,1,2.907,2.907Z" transform="translate(-283.295 -204.599)"/>
    <path id="Path_187" data-name="Path 187" class="cls-2" d="M315.273,204.6H286.2a2.916,2.916,0,0,0-2.907,2.907v17.442a2.916,2.916,0,0,0,2.907,2.907h29.071a2.916,2.916,0,0,0,2.907-2.907V207.506A2.916,2.916,0,0,0,315.273,204.6Zm0,.581a2.328,2.328,0,0,1,2.326,2.326v17.442a2.328,2.328,0,0,1-2.326,2.326H286.2a2.328,2.328,0,0,1-2.326-2.326V207.506a2.328,2.328,0,0,1,2.326-2.326Z" transform="translate(-283.295 -204.599)"/>
    <path id="Shape-2" data-name="Shape" class="cls-3" d="M323.646,223.584a1.624,1.624,0,0,1-2.105,1.213l-.36,1.077a2.762,2.762,0,0,0,3.579-2.063Zm-3.418,1.741.752-.851a1.623,1.623,0,0,1,0-2.43l-.752-.851a2.758,2.758,0,0,0,0,4.132Zm1.313-3.605a1.625,1.625,0,0,1,2.1,1.216l1.113-.227a2.761,2.761,0,0,0-3.577-2.066Zm-3.331-2.461v5.325l.924.383-.437,1.05-.914-.38a1.038,1.038,0,0,1-.45-.378,1.192,1.192,0,0,1-.177-.66V219.26ZM314,220.5a2.758,2.758,0,0,0-2.352,4.262l4.994-2.135A2.757,2.757,0,0,0,314,220.5Zm-1.655,2.928a1.44,1.44,0,0,1-.01-.2,1.623,1.623,0,0,1,2.863-1.023Zm2.748.988a1.613,1.613,0,0,1-2,.213l-.6.962a2.753,2.753,0,0,0,3.394-.361Z" transform="translate(-294.977 -210.735)"/>
    <path id="Path_188" data-name="Path 188" class="cls-4" d="M301.415,225.989a2.661,2.661,0,0,1-3.448,1.988l-.591,1.765a4.523,4.523,0,0,0,5.862-3.379Z" transform="translate(-289.189 -213.553)"/>
    <path id="Path_189" data-name="Path 189" class="cls-5" d="M293.6,226.019l1.233-1.394a2.657,2.657,0,0,1,0-3.982l-1.233-1.393a4.52,4.52,0,0,0,0,6.768" transform="translate(-286.969 -210.732)"/>
    <path id="Path_190" data-name="Path 190" class="cls-6" d="M297.968,219.3a2.661,2.661,0,0,1,3.449,1.991l1.823-.372a4.523,4.523,0,0,0-5.861-3.384Z" transform="translate(-289.19 -209.915)"/>
  </g>
</svg>
