<svg id="btn_WindowsStore" xmlns="http://www.w3.org/2000/svg" width="61.092" height="18.101" viewBox="0 0 61.092 18.101">
  <defs>
    <style>
      .cls-1 {
        fill: #496571;
      }

      .cls-2 {
        fill: #fff;
      }
    </style>
  </defs>
  <g id="Group_54" data-name="Group 54" transform="translate(-97.102 -1268.956)">
    <rect id="Rectangle_84" data-name="Rectangle 84" class="cls-1" width="61.092" height="18.101" rx="2.263" transform="translate(97.102 1268.956)"/>
    <g id="Group_53" data-name="Group 53">
      <path id="Path_80" data-name="Path 80" class="cls-2" d="M105.354,1273.122a1.744,1.744,0,0,1,.033.321c-.452.195-.626.335-.618,1.005v.41l-.309.062v-.475c0-.986.377-1.141.894-1.323m.9-.212a2.506,2.506,0,0,1,.048.311c.809-.116.793.218.793.914v.258l.307-.063v-.195c0-1.081-.168-1.371-1.148-1.225m-3.187,2.289v-1.423c-.01-.881.444-1.151,1.286-1.349,1.265-.3,1.346.52,1.346,1.04v1.2l.309-.062v-1.117c0-.983-.309-1.719-1.718-1.4-.758.173-1.533.366-1.533,1.654v1.513Zm3.708,3.74h-2.382v-1.724l2.382-.349Zm0,2.435-2.382-.347v-1.851h2.382Zm-2.62-2.435h-1.89V1277.5l1.89-.267Zm0,2.073-1.89-.266v-1.57h1.89Zm4.8-6.617-8.517,1.7v6.194l8.517,1.7,1.7-.619v-8.362Z"/>
      <g id="Group_52" data-name="Group 52">
        <path id="Path_81" data-name="Path 81" class="cls-2" d="M116.431,1274.626a1.658,1.658,0,0,1-.209.839,1.4,1.4,0,0,1-.592.56,1.908,1.908,0,0,1-.879.2h-.823v-3.113h.859q1.644,0,1.644,1.518m-.382.009q0-1.2-1.27-1.2h-.487v2.454h.463a1.314,1.314,0,0,0,.955-.329,1.235,1.235,0,0,0,.339-.928m2.967.467a1.2,1.2,0,0,1-.3.851,1.052,1.052,0,0,1-.807.323,1.03,1.03,0,0,1-.787-.314,1.16,1.16,0,0,1-.294-.827,1.217,1.217,0,0,1,.3-.87,1.086,1.086,0,0,1,.832-.321.993.993,0,0,1,.775.309,1.222,1.222,0,0,1,.279.849m-.364.012a.979.979,0,0,0-.186-.642.648.648,0,0,0-.531-.224.681.681,0,0,0-.542.229.952.952,0,0,0-.2.645.907.907,0,0,0,.2.625.692.692,0,0,0,.542.225.655.655,0,0,0,.532-.221.966.966,0,0,0,.185-.637m3.717-1.116-.667,2.223h-.369l-.459-1.591a1.167,1.167,0,0,1-.034-.2h-.008a1.059,1.059,0,0,1-.046.2l-.5,1.595h-.356l-.671-2.223h.374l.457,1.672a1.186,1.186,0,0,1,.031.2h.017a.936.936,0,0,1,.041-.2l.51-1.668h.327l.462,1.676a1.161,1.161,0,0,1,.03.2h.017a.84.84,0,0,1,.035-.2l.454-1.676Zm2.26,2.223h-.356v-1.268q0-.7-.517-.7a.57.57,0,0,0-.44.2.735.735,0,0,0-.177.507v1.268h-.355V1274h.355v.369h.009a.8.8,0,0,1,.73-.423.675.675,0,0,1,.559.239,1.056,1.056,0,0,1,.192.677Zm1.027,0H125.3v-3.291h.356Zm2.74-1.119a1.2,1.2,0,0,1-.3.851,1.052,1.052,0,0,1-.807.323,1.029,1.029,0,0,1-.787-.314,1.16,1.16,0,0,1-.294-.827,1.212,1.212,0,0,1,.3-.87,1.085,1.085,0,0,1,.831-.321.994.994,0,0,1,.776.309,1.222,1.222,0,0,1,.28.849m-.365.012a.984.984,0,0,0-.186-.642.649.649,0,0,0-.531-.224.683.683,0,0,0-.543.229.957.957,0,0,0-.2.645.9.9,0,0,0,.2.625.687.687,0,0,0,.541.225.655.655,0,0,0,.532-.221.971.971,0,0,0,.185-.637m2.49,1.107h-.356v-.347h-.008a.747.747,0,0,1-.684.4.736.736,0,0,1-.515-.175.6.6,0,0,1-.193-.471q0-.619.733-.725l.667-.093c0-.375-.153-.564-.458-.564a1.1,1.1,0,0,0-.725.271v-.364a1.056,1.056,0,0,1,.334-.143,1.563,1.563,0,0,1,.422-.068q.783,0,.783.832Zm-.356-1.124-.538.076a.785.785,0,0,0-.386.131.365.365,0,0,0-.112.3.333.333,0,0,0,.12.268.457.457,0,0,0,.306.1.568.568,0,0,0,.437-.187.661.661,0,0,0,.173-.467Zm2.907,1.124h-.356v-.377h-.009a.893.893,0,0,1-1.435.129,1.236,1.236,0,0,1-.25-.809,1.348,1.348,0,0,1,.277-.886.917.917,0,0,1,.742-.334.715.715,0,0,1,.666.36h.009v-1.374h.356Zm-.356-1.005v-.328a.619.619,0,0,0-.184-.458.608.608,0,0,0-.446-.182.616.616,0,0,0-.51.238,1.037,1.037,0,0,0-.188.658.944.944,0,0,0,.177.606.584.584,0,0,0,.48.222.62.62,0,0,0,.483-.213.79.79,0,0,0,.188-.543m3.211-1.973a.473.473,0,0,0-.237-.059c-.248,0-.373.157-.373.471V1274h.521v.3h-.521v1.921h-.356V1274.3h-.378v-.3h.378v-.361a.753.753,0,0,1,.2-.546.673.673,0,0,1,.508-.209.7.7,0,0,1,.258.039Zm1.452,1.116a.476.476,0,0,0-.655.15,1.027,1.027,0,0,0-.148.579v1.133h-.356V1274h.356v.459h.009a.779.779,0,0,1,.228-.364.525.525,0,0,1,.354-.134.585.585,0,0,1,.212.03Zm2.351.743a1.2,1.2,0,0,1-.3.851,1.051,1.051,0,0,1-.807.323,1.029,1.029,0,0,1-.787-.314,1.16,1.16,0,0,1-.294-.827,1.217,1.217,0,0,1,.3-.87,1.085,1.085,0,0,1,.831-.321,1,1,0,0,1,.776.309,1.222,1.222,0,0,1,.28.849m-.365.012a.979.979,0,0,0-.186-.642.647.647,0,0,0-.53-.224.684.684,0,0,0-.544.229.952.952,0,0,0-.2.645.9.9,0,0,0,.2.625.689.689,0,0,0,.542.225.654.654,0,0,0,.531-.221.971.971,0,0,0,.185-.637m4.073,1.107h-.356v-1.277a.953.953,0,0,0-.114-.534.438.438,0,0,0-.384-.162.475.475,0,0,0-.387.209.793.793,0,0,0-.159.5v1.268h-.357V1274.9c0-.436-.168-.654-.506-.654a.468.468,0,0,0-.386.2.8.8,0,0,0-.152.508v1.268h-.356V1274h.356v.352h.009a.753.753,0,0,1,.688-.406.663.663,0,0,1,.39.122.629.629,0,0,1,.242.34.793.793,0,0,1,.738-.462q.733,0,.734.908Z"/>
        <path id="Path_82" data-name="Path 82" class="cls-2" d="M119.624,1278.22l-1.31,4.637h-.636l-.955-3.391a2.251,2.251,0,0,1-.07-.469h-.013a3.049,3.049,0,0,1-.087.463l-.961,3.4h-.631l-1.354-4.637h.594l.987,3.557a2.773,2.773,0,0,1,.08.466h.014a2.257,2.257,0,0,1,.1-.466l1.028-3.557h.524l.98,3.583a2.673,2.673,0,0,1,.077.43H118a2.827,2.827,0,0,1,.088-.442l.947-3.571Zm1.053.237a.322.322,0,0,1-.1.247.359.359,0,0,1-.491,0,.334.334,0,0,1-.1-.251.338.338,0,0,1,.1-.241.33.33,0,0,1,.247-.1.345.345,0,0,1,.25.1.335.335,0,0,1,.1.243m-.091,4.4h-.531v-3.311h.531Zm3.552,0h-.531v-1.888q0-1.052-.769-1.052a.842.842,0,0,0-.655.3,1.087,1.087,0,0,0-.264.755v1.888h-.53v-3.311h.53v.55h.012a1.191,1.191,0,0,1,1.087-.63,1.006,1.006,0,0,1,.833.355,1.572,1.572,0,0,1,.287,1.009Zm3.679,0h-.53v-.562h-.013a1.331,1.331,0,0,1-2.138.192,1.837,1.837,0,0,1-.371-1.2,2,2,0,0,1,.413-1.319,1.358,1.358,0,0,1,1.1-.5,1.065,1.065,0,0,1,.992.536h.013v-2.047h.53Zm-.53-1.5v-.488a.929.929,0,0,0-.273-.683.91.91,0,0,0-.664-.272.92.92,0,0,0-.76.355,1.537,1.537,0,0,0-.282.982,1.406,1.406,0,0,0,.265.9.868.868,0,0,0,.715.331.912.912,0,0,0,.717-.317,1.162,1.162,0,0,0,.282-.808m4.446-.171a1.78,1.78,0,0,1-.449,1.269,1.559,1.559,0,0,1-1.2.48,1.532,1.532,0,0,1-1.172-.467,1.724,1.724,0,0,1-.438-1.23,1.812,1.812,0,0,1,.45-1.3,1.615,1.615,0,0,1,1.238-.477,1.482,1.482,0,0,1,1.155.46,1.812,1.812,0,0,1,.417,1.263m-.544.019a1.465,1.465,0,0,0-.276-.957.97.97,0,0,0-.791-.334,1.019,1.019,0,0,0-.808.342,1.42,1.42,0,0,0-.3.962,1.342,1.342,0,0,0,.3.929,1.024,1.024,0,0,0,.806.335.974.974,0,0,0,.792-.329,1.44,1.44,0,0,0,.275-.948m5.371-1.662-.993,3.311h-.55l-.682-2.37a1.636,1.636,0,0,1-.051-.3h-.014a1.536,1.536,0,0,1-.067.3l-.741,2.376h-.53l-1-3.311h.557l.682,2.49a1.807,1.807,0,0,1,.045.3h.026a1.278,1.278,0,0,1,.061-.3l.761-2.484h.485l.688,2.5a1.741,1.741,0,0,1,.045.3h.026a1.178,1.178,0,0,1,.052-.3l.676-2.5Zm2.259,2.425a.857.857,0,0,1-.331.7,1.358,1.358,0,0,1-.881.268,1.622,1.622,0,0,1-.822-.2v-.569a1.334,1.334,0,0,0,.861.317c.42,0,.63-.153.63-.462a.406.406,0,0,0-.123-.306,2.4,2.4,0,0,0-.559-.318,1.669,1.669,0,0,1-.621-.4.923.923,0,0,1,.149-1.257,1.263,1.263,0,0,1,.837-.274,1.579,1.579,0,0,1,.708.155v.533a1.24,1.24,0,0,0-.749-.237.654.654,0,0,0-.423.13.41.41,0,0,0-.161.334.45.45,0,0,0,.124.338,1.835,1.835,0,0,0,.507.278,1.824,1.824,0,0,1,.663.422.813.813,0,0,1,.191.552"/>
        <path id="Path_83" data-name="Path 83" class="cls-2" d="M143.538,1281.687a1.113,1.113,0,0,1-.414.918,1.745,1.745,0,0,1-1.125.334,2.315,2.315,0,0,1-.583-.086,1.578,1.578,0,0,1-.462-.179v-.644a1.587,1.587,0,0,0,.519.3,1.73,1.73,0,0,0,.6.12c.6,0,.891-.232.891-.7a.71.71,0,0,0-.19-.5,3.587,3.587,0,0,0-.783-.548,2.749,2.749,0,0,1-.8-.614,1.187,1.187,0,0,1,.18-1.6,1.59,1.59,0,0,1,1.061-.344,1.913,1.913,0,0,1,.912.164v.607a1.481,1.481,0,0,0-.941-.284.983.983,0,0,0-.628.193.613.613,0,0,0-.245.509.794.794,0,0,0,.073.369.876.876,0,0,0,.246.275,4.942,4.942,0,0,0,.583.365,3,3,0,0,1,.861.647,1.081,1.081,0,0,1,.245.7m2.191,1.138a1,1,0,0,1-.5.107q-.865,0-.866-.976V1280H143.8v-.45h.569v-.808l.53-.171v.979h.834v.45H144.9v1.869a.77.77,0,0,0,.113.474.462.462,0,0,0,.378.14.558.558,0,0,0,.343-.107Zm3.656-1.636a1.784,1.784,0,0,1-.448,1.269,1.564,1.564,0,0,1-1.2.481,1.529,1.529,0,0,1-1.172-.468,1.724,1.724,0,0,1-.438-1.23,1.808,1.808,0,0,1,.45-1.3,1.617,1.617,0,0,1,1.238-.477,1.482,1.482,0,0,1,1.155.46,1.812,1.812,0,0,1,.416,1.263m-.543.019a1.461,1.461,0,0,0-.276-.956.97.97,0,0,0-.791-.334,1.02,1.02,0,0,0-.809.341,1.422,1.422,0,0,0-.3.962,1.342,1.342,0,0,0,.3.93,1.029,1.029,0,0,0,.807.335.973.973,0,0,0,.792-.33,1.44,1.44,0,0,0,.275-.948m2.826-1.125a.712.712,0,0,0-.976.224,1.535,1.535,0,0,0-.22.863v1.688h-.53v-3.312h.53v.683h.013a1.167,1.167,0,0,1,.339-.542.789.789,0,0,1,.527-.2.839.839,0,0,1,.317.046Zm3.2,1.252h-2.338a1.239,1.239,0,0,0,.3.855,1.035,1.035,0,0,0,.784.3,1.619,1.619,0,0,0,1.025-.362v.495a1.894,1.894,0,0,1-1.151.32,1.39,1.39,0,0,1-1.106-.458,1.867,1.867,0,0,1-.4-1.266,2,2,0,0,1,.2-.9,1.514,1.514,0,0,1,.548-.629,1.412,1.412,0,0,1,.776-.223,1.256,1.256,0,0,1,1.005.418,1.745,1.745,0,0,1,.36,1.173Zm-.543-.45a1.093,1.093,0,0,0-.222-.713.751.751,0,0,0-.606-.254.854.854,0,0,0-.63.265,1.243,1.243,0,0,0-.331.7Z"/>
      </g>
    </g>
  </g>
</svg>
