<svg id="btn_AppleStore" xmlns="http://www.w3.org/2000/svg" width="61.092" height="18.101" viewBox="0 0 61.092 18.101">
  <defs>
    <style>
      .cls-1 {
        fill: #496571;
      }

      .cls-2 {
        fill: #fff;
      }
    </style>
  </defs>
  <rect id="Rectangle_85" data-name="Rectangle 85" class="cls-1" width="61.092" height="18.101" rx="2.263"/>
  <g id="Group_56" data-name="Group 56" transform="translate(-96.641 -1295.816)">
    <path id="Path_84" data-name="Path 84" class="cls-2" d="M116.058,1298.529a6.921,6.921,0,0,1,.952-.067,2.085,2.085,0,0,1,1.406.4,1.438,1.438,0,0,1,.489,1.16,1.646,1.646,0,0,1-.5,1.257,2.24,2.24,0,0,1-1.535.465,7.736,7.736,0,0,1-.813-.038Zm.448,2.858a2.921,2.921,0,0,0,.453.024,1.29,1.29,0,0,0,1.478-1.371c.005-.763-.458-1.247-1.406-1.247a2.715,2.715,0,0,0-.525.043Z"/>
    <path id="Path_85" data-name="Path 85" class="cls-2" d="M119.977,1298.745a.282.282,0,0,1-.562,0,.268.268,0,0,1,.284-.264A.26.26,0,0,1,119.977,1298.745Zm-.5,2.973V1299.4h.453v2.321Z"/>
    <path id="Path_86" data-name="Path 86" class="cls-2" d="M120.615,1301.287a1.258,1.258,0,0,0,.6.168c.329,0,.484-.154.484-.346s-.129-.311-.464-.427c-.448-.148-.659-.378-.659-.657,0-.374.325-.681.86-.681a1.326,1.326,0,0,1,.613.144l-.113.307a1.029,1.029,0,0,0-.51-.134c-.268,0-.417.144-.417.316,0,.192.149.279.473.394.433.153.654.355.654.7,0,.408-.339.695-.932.695a1.506,1.506,0,0,1-.7-.158Z"/>
    <path id="Path_87" data-name="Path 87" class="cls-2" d="M122.716,1300.155c0-.3-.01-.537-.02-.758h.407l.02.4h.011a1,1,0,0,1,.885-.451,1.079,1.079,0,0,1,1.056,1.18,1.131,1.131,0,0,1-1.133,1.247.893.893,0,0,1-.767-.364h-.011v1.261h-.448Zm.448.619a.911.911,0,0,0,.021.172.691.691,0,0,0,.68.494c.479,0,.757-.364.757-.9a.773.773,0,0,0-.742-.863.714.714,0,0,0-.685.523.661.661,0,0,0-.031.173Z"/>
    <path id="Path_88" data-name="Path 88" class="cls-2" d="M127.9,1300.539a1.176,1.176,0,0,1-1.241,1.232,1.142,1.142,0,0,1-1.195-1.194,1.173,1.173,0,0,1,1.236-1.233A1.137,1.137,0,0,1,127.9,1300.539Zm-1.977.024a.768.768,0,1,0,.767-.9A.807.807,0,0,0,125.925,1300.563Z"/>
    <path id="Path_89" data-name="Path 89" class="cls-2" d="M128.474,1300.025c0-.239-.005-.436-.021-.628h.4l.026.384h.01a.929.929,0,0,1,.824-.437.869.869,0,0,1,.881.988v1.386h-.454v-1.338c0-.374-.149-.686-.576-.686a.638.638,0,0,0-.608.432.562.562,0,0,0-.031.2v1.4h-.453Z"/>
    <path id="Path_90" data-name="Path 90" class="cls-2" d="M132.254,1298.4l-.628.686H131.3l.453-.686Zm-.922,3.323V1299.4h.453v2.321Z"/>
    <path id="Path_91" data-name="Path 91" class="cls-2" d="M132.712,1299.4l.489,1.305a5.4,5.4,0,0,1,.2.594h.016c.056-.192.128-.383.211-.594l.484-1.305h.474l-.979,2.321h-.432l-.948-2.321Z"/>
    <path id="Path_92" data-name="Path 92" class="cls-2" d="M135.215,1300.634a.774.774,0,0,0,.855.806,1.747,1.747,0,0,0,.69-.12l.077.3a2.126,2.126,0,0,1-.829.144,1.117,1.117,0,0,1-1.225-1.17,1.158,1.158,0,0,1,1.168-1.252,1.007,1.007,0,0,1,1.03,1.094,1.522,1.522,0,0,1-.015.2Zm1.329-.3a.614.614,0,0,0-.629-.685.722.722,0,0,0-.695.685Z"/>
    <path id="Path_93" data-name="Path 93" class="cls-2" d="M137.543,1298.313H138v3.405h-.453Z"/>
    <path id="Path_94" data-name="Path 94" class="cls-2" d="M139.85,1300.025c0-.239-.005-.436-.021-.628h.4l.026.384h.01a.929.929,0,0,1,.824-.437.868.868,0,0,1,.88.988v1.386h-.453v-1.338c0-.374-.149-.686-.576-.686a.638.638,0,0,0-.608.432.562.562,0,0,0-.031.2v1.4h-.453Z"/>
    <path id="Path_95" data-name="Path 95" class="cls-2" d="M144.088,1301.718l-.036-.292h-.015a.953.953,0,0,1-.762.345.689.689,0,0,1-.763-.667c0-.561.536-.868,1.5-.863v-.048c0-.192-.057-.537-.567-.537a1.3,1.3,0,0,0-.648.173l-.1-.278a1.628,1.628,0,0,1,.818-.207.848.848,0,0,1,.948.95v.868a3.037,3.037,0,0,0,.041.556Zm-.067-1.184c-.494-.01-1.055.072-1.055.523a.387.387,0,0,0,.427.4.617.617,0,0,0,.6-.388.4.4,0,0,0,.026-.134Z"/>
  </g>
  <g id="Group_60" data-name="Group 60" transform="translate(-96.641 -1295.816)">
    <g id="Group_58" data-name="Group 58">
      <path id="Path_96" data-name="Path 96" class="cls-2" d="M112.572,1307.885a9.893,9.893,0,0,1-.894,1.67c-.581.885-1.4,1.986-2.415,1.995-.9.009-1.133-.586-2.357-.58s-1.479.591-2.381.583c-1.014-.01-1.79-1-2.371-1.889-1.625-2.473-1.795-5.376-.793-6.919a3.6,3.6,0,0,1,2.892-1.738c1.075,0,1.751.59,2.64.59.863,0,1.389-.591,2.632-.591a3.5,3.5,0,0,1,2.645,1.4A3.027,3.027,0,0,0,112.572,1307.885Z"/>
      <g id="Group_57" data-name="Group 57">
        <path id="Path_97" data-name="Path 97" class="cls-2" d="M108.582,1300.018a3.019,3.019,0,0,0,.67-2.236,3.261,3.261,0,0,0-2.1,1.132,2.8,2.8,0,0,0-.688,2.181A2.754,2.754,0,0,0,108.582,1300.018Z"/>
      </g>
    </g>
    <g id="Group_59" data-name="Group 59">
      <path id="Path_98" data-name="Path 98" class="cls-2" d="M117.522,1302.708l-2.328,6.851h1.066l.695-2.1h2.254l.714,2.1h1.1l-2.337-6.851Zm.552,1.126c.079.306.163.624.272.967l.628,1.816h-1.785l.618-1.828C117.9,1304.492,117.991,1304.172,118.074,1303.834Z"/>
      <path id="Path_99" data-name="Path 99" class="cls-2" d="M124.03,1304.484a1.94,1.94,0,0,0-1.648.79l-.041-.681h-.948l.005.087c.028.425.04.892.04,1.563v5.28h1.037v-2.464a1.818,1.818,0,0,0,1.416.609,2.14,2.14,0,0,0,1.571-.668,2.834,2.834,0,0,0,.694-1.994,2.751,2.751,0,0,0-.6-1.82A1.97,1.97,0,0,0,124.03,1304.484Zm-.258.858c.924,0,1.337.856,1.337,1.7,0,1.094-.527,1.774-1.377,1.774a1.258,1.258,0,0,1-1.221-.962,1.328,1.328,0,0,1-.036-.336v-.833a1.461,1.461,0,0,1,.033-.256c0-.028.01-.057.014-.084A1.313,1.313,0,0,1,123.772,1305.342Z"/>
      <path id="Path_100" data-name="Path 100" class="cls-2" d="M129.367,1304.484a1.941,1.941,0,0,0-1.648.79l-.041-.681h-.948l.006.087c.028.425.04.892.04,1.563v5.28h1.036v-2.464a1.82,1.82,0,0,0,1.417.609A2.141,2.141,0,0,0,130.8,1309a2.838,2.838,0,0,0,.693-1.994,2.756,2.756,0,0,0-.6-1.82A1.972,1.972,0,0,0,129.367,1304.484Zm-.258.858c.924,0,1.338.856,1.338,1.7,0,1.094-.528,1.774-1.377,1.774a1.256,1.256,0,0,1-1.221-.962,1.323,1.323,0,0,1-.037-.336v-.833a1.575,1.575,0,0,1,.033-.257c0-.028.011-.056.015-.083A1.312,1.312,0,0,1,129.109,1305.342Z"/>
      <path id="Path_101" data-name="Path 101" class="cls-2" d="M136.054,1305.611c-.967-.375-1.277-.67-1.277-1.214,0-.458.364-.92,1.178-.92a2.361,2.361,0,0,1,1.217.3l.088.054.292-.865-.058-.034a3.011,3.011,0,0,0-1.509-.338,2,2,0,0,0-2.245,1.9c0,.9.578,1.53,1.819,1.982.88.328,1.207.665,1.207,1.243,0,.653-.505,1.059-1.317,1.059a2.839,2.839,0,0,1-1.494-.424l-.09-.058-.278.885.051.034a3.539,3.539,0,0,0,1.751.451c1.782,0,2.414-1.087,2.414-2.017C137.8,1306.692,137.3,1306.1,136.054,1305.611Z"/>
      <path id="Path_102" data-name="Path 102" class="cls-2" d="M139.668,1303.413l-1.016.319v.861h-.745v.828h.745v2.538a1.939,1.939,0,0,0,.359,1.315,1.326,1.326,0,0,0,1,.394,2.451,2.451,0,0,0,.8-.124l.058-.021-.05-.83-.1.031a1.571,1.571,0,0,1-.483.056c-.4,0-.573-.254-.573-.851v-2.508h1.251v-.828h-1.251Z"/>
      <path id="Path_103" data-name="Path 103" class="cls-2" d="M143.487,1304.484a2.441,2.441,0,0,0-2.463,2.631,2.366,2.366,0,0,0,2.384,2.553h.01a2.444,2.444,0,0,0,2.463-2.642,2.619,2.619,0,0,0-.661-1.833A2.305,2.305,0,0,0,143.487,1304.484Zm-.03.818c.933,0,1.357.909,1.357,1.754,0,1.039-.579,1.793-1.376,1.793h-.01c-.786,0-1.357-.741-1.357-1.763C142.071,1306.2,142.5,1305.3,143.457,1305.3Z"/>
      <path id="Path_104" data-name="Path 104" class="cls-2" d="M149.055,1304.532l-.062-.016a.988.988,0,0,0-.258-.032,1.478,1.478,0,0,0-1.3.834l-.031-.725h-.93l.006.087c.028.41.039.871.039,1.493l-.009,3.386h1.036v-2.642a2.636,2.636,0,0,1,.029-.4,1.145,1.145,0,0,1,1.09-1.044,2.551,2.551,0,0,1,.278.017l.111.012Z"/>
      <path id="Path_105" data-name="Path 105" class="cls-2" d="M151.386,1304.474a2.419,2.419,0,0,0-2.344,2.681,2.318,2.318,0,0,0,2.443,2.5,3.987,3.987,0,0,0,1.641-.315l.062-.028-.2-.773-.086.035a3.21,3.21,0,0,1-1.3.233,1.441,1.441,0,0,1-1.552-1.5l3.345.01.014-.066a2.324,2.324,0,0,0,.031-.433A2.094,2.094,0,0,0,151.386,1304.474Zm-.069.789a1.02,1.02,0,0,1,.76.29,1.466,1.466,0,0,1,.357.965h-2.363A1.322,1.322,0,0,1,151.317,1305.263Z"/>
    </g>
  </g>
</svg>
