<svg id="Teky_LogoApp_Color" xmlns="http://www.w3.org/2000/svg" width="102.928" height="44.464" viewBox="0 0 102.928 44.464">
  <defs>
    <style>
      .cls-1 {
        fill: #49494c;
      }

      .cls-2 {
        fill: #006cb9;
      }
    </style>
  </defs>
  <path id="Path_126" data-name="Path 126" class="cls-1" d="M234.226,58.4a3.8,3.8,0,0,1,1.448-2.987,10.019,10.019,0,0,0-2.1-3.705,3.81,3.81,0,0,1-5.245-3.1,10.028,10.028,0,0,0-4.476,0,3.811,3.811,0,0,1-5.246,3.1,10.008,10.008,0,0,0-2.1,3.7,3.806,3.806,0,0,1,.009,5.972,10.023,10.023,0,0,0,2.091,3.684,3.811,3.811,0,0,1,5.245,3.1,10.011,10.011,0,0,0,4.476,0,3.811,3.811,0,0,1,5.245-3.1,10.018,10.018,0,0,0,2.093-3.683A3.8,3.8,0,0,1,234.226,58.4Zm-7.62,4.254v-2.2a2.063,2.063,0,0,1-1.023,0v2.2a4.3,4.3,0,0,1-3.755-3.755h2.2a2.062,2.062,0,0,1,0-1.023h-2.2a4.3,4.3,0,0,1,3.755-3.755v2.2a2.062,2.062,0,0,1,1.023,0v-2.2a4.3,4.3,0,0,1,3.755,3.755h-2.2a2.062,2.062,0,0,1,0,1.023h2.2A4.3,4.3,0,0,1,226.605,62.656Z" transform="translate(-136.256 -40.367)"/>
  <path id="Path_127" data-name="Path 127" class="cls-2" d="M141.732,58.532l5.182-10.363h6.726L147.018,61.3l7.505,15.509h-6.7l-6.091-12.791ZM166.1,48.178l-3.655,13.7-3.655-13.7h-2.132l-2.979,5.959,5.416,20.309L156.35,84.723h6.7L172.8,48.178Z" transform="translate(-93.613 -40.259)"/>
  <path id="Path_128" data-name="Path 128" class="cls-1" d="M43.74,66.31V60.219H39.51V43.164h4.23V37.682H39.51V29.764H32.836v7.918H29.764v5.482h3.072v19.6c0,2.382,1.162,3.543,3.6,3.543ZM60.219,49.291H54.737V43.164h5.482ZM77.883,29.764h-6.7V66.31h6.7ZM66.921,48.037V41.226c0-2.382-1.22-3.543-3.659-3.543H51.7c-2.5,0-3.66,1.162-3.66,3.543V62.766c0,2.382,1.162,3.543,3.66,3.543H63.262c2.439,0,3.659-1.162,3.659-3.543V58.392h-5.18l-.914,1.827H54.737V54.1l8.641.024c2.382,0,3.543-1.22,3.543-3.66Zm-6.7,1.254H54.737V43.164h5.482Zm6.7-1.254V41.226c0-2.382-1.22-3.543-3.659-3.543H51.7c-2.5,0-3.66,1.162-3.66,3.543V62.766c0,2.382,1.162,3.543,3.66,3.543H63.262c2.439,0,3.659-1.162,3.659-3.543V58.392h-5.18l-.914,1.827H54.737V54.1l8.641.024c2.382,0,3.543-1.22,3.543-3.66Z" transform="translate(-29.764 -29.764)"/>
  <path id="Path_129" data-name="Path 129" class="cls-2" d="M191.534,41.939h-35.2l-.426.853h35.628v-.007a11.945,11.945,0,1,1-9.012,19.781,3.8,3.8,0,0,0-.667,1.275,13.089,13.089,0,1,0,9.678-21.9Z" transform="translate(-101.696 -36.707)"/>
  <path id="Path_130" data-name="Path 130" class="cls-2" d="M162.793,33.444l-.358-.651H159.92l-.37.651h-1.1v-.009l2.163-3.648h1.12l2.163,3.648v.009Zm-1.618-2.9-.891,1.6h1.788Z" transform="translate(-103.15 -29.777)"/>
  <path id="Path_131" data-name="Path 131" class="cls-2" d="M177.07,32.281h-3.078v1.163h-1.061V29.787h4.145c.246,0,.392.134.392.345v1.8C177.468,32.147,177.316,32.281,177.07,32.281Zm-.657-1.81h-2.421v1.144h2.421Z" transform="translate(-111.404 -29.777)"/>
  <path id="Path_132" data-name="Path 132" class="cls-2" d="M190.1,32.281h-3.078v1.163h-1.061V29.787h4.145c.246,0,.393.134.393.345v1.8C190.5,32.147,190.346,32.281,190.1,32.281Zm-.657-1.81h-2.421v1.144h2.421Z" transform="translate(-118.835 -29.777)"/>
</svg>
