<svg id="ic_produtos_fixacao" xmlns="http://www.w3.org/2000/svg" width="24" height="24" viewBox="0 0 24 24">
  <defs>
    <style>
      .cls-1 {
        fill: none;
      }

      .cls-2 {
        fill: #496571;
      }
    </style>
  </defs>
  <path id="Path_14" data-name="Path 14" class="cls-1" d="M279.045,42.967h24v24h-24Z" transform="translate(-279.045 -42.967)"/>
  <path id="Path_212" data-name="Path 212" class="cls-2" d="M7.884,1.345H9.9V4.3l-1.009.4v.758l1.009-.4V5.65l-1.009.4v.758l1.009-.4V7l-1.009.4v.758l1.009-.4v.587l-1.009.4V9.5L9.9,9.1v.587l-1.009.4v.758l1.009-.4v.587l-1.009.4v.758l1.009-.4v.587l-1.009.4v.758l1.009-.4v2.5l1.556,1.522,1.471-1.522V11.924l1.009-.4v-.758l-1.009.4v-.587l1.009-.4V9.417l-1.009.4V9.234l1.009-.4V8.072l-1.009.4V7.888l1.009-.4V6.726l-1.009.4V6.543l1.009-.4V5.381l-1.009.4V5.2l1.009-.4V4.036l-1.009.4V3.853l1.009-.4V2.691l-1.009.4V1.345h2.018V0H7.884Zm12.933.087a2.306,2.306,0,1,0,2.306,2.306A2.309,2.309,0,0,0,20.817,1.432Zm0,4.026a1.72,1.72,0,1,1,1.72-1.72A1.72,1.72,0,0,1,20.817,5.458ZM18.882.428,16.959,3.81l1.923,3.382h3.846L24.651,3.81,22.728.428Zm1.935,5.9A2.588,2.588,0,1,1,23.4,3.738,2.591,2.591,0,0,1,20.817,6.326Zm0,3.706a3.393,3.393,0,1,0,3.393,3.393A3.4,3.4,0,0,0,20.817,10.032Zm0,5.924a2.531,2.531,0,1,1,2.531-2.531A2.531,2.531,0,0,1,20.817,15.956Z" transform="translate(-3.884 3)"/>
</svg>
