<svg xmlns="http://www.w3.org/2000/svg" width="24" height="24" viewBox="0 0 24 24">
  <defs>
    <style>
      .cls-1 {
        fill: none;
      }

      .cls-2 {
        fill: #496571;
      }
    </style>
  </defs>
  <g id="ic_produtos_hidraulicos" transform="translate(0 0)">
    <path id="Path_14" data-name="Path 14" class="cls-1" d="M150.578,43.106h24v24h-24Z" transform="translate(-150.578 -43.106)"/>
    <g id="Group_9" data-name="Group 9" transform="translate(-150.578 -43.106)">
      <path id="Path_25" data-name="Path 25" class="cls-2" d="M161.645,49.512a.933.933,0,0,0,.933.933.92.92,0,0,0,.4-.093l.935.935a.311.311,0,0,0,.44-.44l-.935-.935a.907.907,0,0,0,.093-.4.927.927,0,0,0-1.332-.839l-.313-.313a.311.311,0,0,0-.439.44l.313.313A.92.92,0,0,0,161.645,49.512Zm1.244,0a.311.311,0,1,1-.311-.31A.311.311,0,0,1,162.889,49.512Zm0-2.175a.311.311,0,1,1-.311-.311A.311.311,0,0,1,162.889,47.337Zm-2.176,2.175a.311.311,0,1,1-.311-.31A.311.311,0,0,1,160.713,49.512Zm.106,1.319a.311.311,0,1,0,.44,0A.311.311,0,0,0,160.819,50.831Zm2.07.857a.311.311,0,1,1-.311-.31A.311.311,0,0,1,162.889,51.688Zm2.176-2.176a.311.311,0,1,1-.311-.31A.311.311,0,0,1,165.065,49.512Zm-.729-1.318a.311.311,0,1,0-.439,0A.312.312,0,0,0,164.336,48.194Zm4.769,6.914h-1.554a.621.621,0,0,0-.621-.622h-.622a.622.622,0,0,0-.622.622h-1.865V53.025a3.73,3.73,0,1,0-2.487,0v2.083h-1.865a.621.621,0,0,0-.621-.622h-.622a.622.622,0,0,0-.622.622H156.05a2.8,2.8,0,0,0-2.8,2.8v6.217a.31.31,0,0,0,.31.311h2.487a.311.311,0,0,0,.311-.311v-5.6a.311.311,0,0,1,.311-.311h.932a.623.623,0,0,0,.622.622h.622a.622.622,0,0,0,.621-.622h6.217a.623.623,0,0,0,.622.622h.622a.622.622,0,0,0,.621-.622h.933a.311.311,0,0,1,.311.311v5.6a.31.31,0,0,0,.31.311h2.487a.311.311,0,0,0,.311-.311V57.9A2.8,2.8,0,0,0,169.1,55.108Zm-9.636-5.6a3.109,3.109,0,1,1,3.948,2.99,3.363,3.363,0,0,1-.384.082l-.055.008a3,3,0,0,1-.8,0l-.055-.008a3.38,3.38,0,0,1-.385-.082A3.113,3.113,0,0,1,159.469,49.512Zm-1.243,8.7V55.108h.622v3.108Zm8.7,0h-.622V55.108h.622Zm.932-10.569a2.741,2.741,0,0,1-.538,1.506,1.937,1.937,0,0,0-.394.981,1.245,1.245,0,1,0,2.486,0,1.936,1.936,0,0,0-.394-.981,2.741,2.741,0,0,1-.538-1.506.311.311,0,0,0-.622,0Z"/>
    </g>
  </g>
</svg>
