<svg xmlns="http://www.w3.org/2000/svg" width="24" height="24" viewBox="0 0 24 24">
  <defs>
    <style>
      .cls-1 {
        fill: none;
      }

      .cls-2 {
        fill: #496571;
      }
    </style>
  </defs>
  <g id="ic_produtos_correias" transform="translate(0 0)">
    <path id="Path_14" data-name="Path 14" class="cls-1" d="M321.971,43.036h24v24h-24Z" transform="translate(-321.971 -43.036)"/>
    <path id="Path_33" data-name="Path 33" class="cls-2" d="M328.613,57.565a2.835,2.835,0,1,0,2.835,2.835A2.838,2.838,0,0,0,328.613,57.565Zm0,4.892A2.057,2.057,0,1,1,330.67,60.4,2.06,2.06,0,0,1,328.613,62.457Zm0-3.072a1.015,1.015,0,1,0,1.016,1.015A1.016,1.016,0,0,0,328.613,59.385Zm0,1.252a.238.238,0,1,1,.238-.237A.237.237,0,0,1,328.613,60.637ZM330.9,50.346a1.454,1.454,0,1,0-1.454-1.454A1.456,1.456,0,0,0,330.9,50.346Zm0-2.13a.676.676,0,1,1-.676.676A.677.677,0,0,1,330.9,48.216Zm9.921,5.059a.592.592,0,1,1-.593.593A.592.592,0,0,1,340.82,53.275Zm1.3,2.709a2.481,2.481,0,0,0,.026-4.217L332.5,46.129v0a3.189,3.189,0,0,0-4.624,1.735c-.016.047-3.114,11.55-3.136,11.642h0a3.973,3.973,0,0,0,5.93,4.29C330.721,63.768,342.1,55.992,342.116,55.984Zm-1.3-.411a1.706,1.706,0,1,1,1.7-1.705A1.707,1.707,0,0,1,340.82,55.573Zm-9.921-9.1a2.415,2.415,0,1,1-2.415,2.415A2.418,2.418,0,0,1,330.9,46.477ZM325.417,60.4a3.2,3.2,0,1,1,3.2,3.2A3.2,3.2,0,0,1,325.417,60.4Z" transform="translate(-321.971 -43.036)"/>
  </g>
</svg>
