<svg xmlns="http://www.w3.org/2000/svg" width="24" height="24" viewBox="0 0 24 24">
  <defs>
    <style>
      .cls-1 {
        fill: none;
      }

      .cls-2 {
        fill: #496571;
      }
    </style>
  </defs>
  <g id="ic_produtos_abrasivos" transform="translate(0 0)">
    <path id="Path_14" data-name="Path 14" class="cls-1" d="M236.526,43.416h24v24h-24Z" transform="translate(-236.526 -43.416)"/>
    <g id="Group_11" data-name="Group 11" transform="translate(-236.526 -43.416)">
      <path id="Path_28" data-name="Path 28" class="cls-2" d="M255.93,57.62a.73.73,0,0,1-.219-1.192l1.948-2.174c.363-.405.215-.716-.328-.691l-1.292.059a.73.73,0,0,1-.785-.922l.6-2.856c.112-.532-.171-.728-.629-.434l-1.091.7a.728.728,0,0,1-1.14-.406l-.908-2.773c-.169-.517-.512-.545-.762-.062l-.594,1.148a.73.73,0,0,1-1.192.218l-2.175-1.946c-.405-.363-.717-.215-.692.328l.06,1.29a.73.73,0,0,1-.923.785l-2.858-.6c-.532-.112-.728.171-.434.629l.7,1.09a.727.727,0,0,1-.406,1.139l-2.775.908c-.517.169-.545.511-.061.761l1.148.594a.729.729,0,0,1,.219,1.191l-1.948,2.174c-.363.406-.215.717.329.692l1.291-.059a.73.73,0,0,1,.785.922l-.6,2.856c-.112.532.172.727.63.434l1.09-.7a.728.728,0,0,1,1.14.406l.908,2.773c.169.517.512.545.762.062l.594-1.148a.731.731,0,0,1,1.192-.219l2.175,1.947c.4.363.717.215.692-.328l-.059-1.29a.73.73,0,0,1,.922-.785l2.858.6c.532.112.728-.171.434-.629l-.7-1.09a.728.728,0,0,1,.406-1.14l2.775-.907c.517-.169.545-.512.062-.762Zm-7.5,2.678a4.835,4.835,0,1,1,4.837-4.835A4.841,4.841,0,0,1,248.431,60.3Z"/>
      <path id="Path_29" data-name="Path 29" class="cls-2" d="M248.431,51.618a3.845,3.845,0,1,0,3.848,3.845A3.851,3.851,0,0,0,248.431,51.618Zm0,4.954a1.108,1.108,0,1,1,1.109-1.109A1.109,1.109,0,0,1,248.431,56.572Z"/>
    </g>
  </g>
</svg>
