<svg xmlns="http://www.w3.org/2000/svg" width="24" height="24" viewBox="0 0 24 24">
  <defs>
    <style>
      .cls-1 {
        fill: none;
      }

      .cls-2 {
        fill: #496571;
      }
    </style>
  </defs>
  <g id="ic_produtos_rolamentos" transform="translate(0 0)">
    <path id="Path_14" data-name="Path 14" class="cls-1" d="M407.01,43.171h24v24h-24Z" transform="translate(-407.01 -43.171)"/>
    <path id="Path_35" data-name="Path 35" class="cls-2" d="M428.342,55.171a9.332,9.332,0,1,1-9.332-9.332A9.332,9.332,0,0,1,428.342,55.171Zm-9.332-2.71a2.71,2.71,0,1,0,2.71,2.71A2.709,2.709,0,0,0,419.01,52.461Zm0-4.644a1.5,1.5,0,1,0,1.505,1.5A1.505,1.505,0,0,0,419.01,47.817Zm0,11.7a1.5,1.5,0,1,0,1.505,1.505A1.505,1.505,0,0,0,419.01,59.514Zm7.354-4.343a1.505,1.505,0,1,0-1.505,1.5A1.505,1.505,0,0,0,426.364,55.171Zm-11.7,0a1.5,1.5,0,1,0-1.505,1.5A1.505,1.505,0,0,0,414.667,55.171Zm-.856-5.2a1.5,1.5,0,1,0,2.128,0A1.5,1.5,0,0,0,413.811,49.971Zm8.271,8.271a1.5,1.5,0,1,0,2.128,0A1.5,1.5,0,0,0,422.082,58.242Zm2.128-8.271a1.5,1.5,0,1,0,0,2.128A1.5,1.5,0,0,0,424.21,49.971Zm-8.271,8.271a1.5,1.5,0,1,0,0,2.128A1.5,1.5,0,0,0,415.939,58.242Z" transform="translate(-407.01 -43.171)"/>
  </g>
</svg>
